<svg id="Graphic_Elements" data-name="Graphic Elements" xmlns="http://www.w3.org/2000/svg" viewBox="0 0 1200 1200"><g id="Graphic_Elements-2" data-name="Graphic Elements"><path id="path5532" d="M161.53,1095.79c-.43-1.39-.45-5.14,0-8.33l.73-5.8-4.34,5.07c-2.39,2.79-4.37,5.57-4.4,6.16-.13,2.36-4.91.85-12.32-3.88l-7.77-5-1-9.15c-.65-6.17-.21-13.17,1.37-21.47,3.61-19,4.87-22.75,13.23-39.56,4.57-9.19,8.17-18.6,8.73-22.8.85-6.4,1.69-7.73,7.89-12.46,6.81-5.19,7-5.52,9.24-17.7,2.16-11.65,4.08-16.3,5.94-14.44,1.41,1.41-9.13,44.82-11.45,47.13-2,2-2.59-1.15-1.06-5.54.89-2.56,1.27-5,.82-5.45-2.16-2.17-6,3.32-8.83,12.58a183,183,0,0,1-9.95,23.76c-5.57,11-7.17,16-8.78,27.23-1.07,7.57-2.42,15.4-3,17.39-.91,3.18-.76,3.39,1.26,1.74,3.08-2.53,4.43,0,1.83,3.48-2.27,3-2.94,10.72-.92,10.72.68,0,2.37-2.93,3.74-6.52s3.09-6.52,3.82-6.52c2,0,1.55,3-1.6,9.94-3.49,7.69-3.49,7.45-.15,7.45,1.65,0,3.43-1.69,4.51-4.3,1.95-4.72,5.39-8.2,6.75-6.84.48.48-.52,3.22-2.21,6.09s-3.08,6.18-3.08,7.35c0,4.08,5.76-.7,8.2-6.79,3.61-9,7-7.17,7,3.8,0,12.45,5.12,13,6,.69.32-4.39,2.48-13.52,4.79-20.29a173.62,173.62,0,0,0,5.88-22.46c2.41-14.53,7.08-29.73,10.68-34.77a47.68,47.68,0,0,0,5.09-10.15c3.29-9.6,15.68-35,21.86-44.75,3.18-5,5.79-9.53,5.79-10,0-.9,16.8-27.71,26.1-41.64,14.41-21.59,25.14-40.38,28.18-49.35l2.19-6.44-6.46,7.24c-3.55,4-6.18,8.23-5.84,9.42.69,2.46-6.48,8.2-21.26,17-3,1.79-5.88,3.26-6.39,3.26-2,0,3-4.54,8.3-7.53,5.59-3.14,7.89-6.74,3.07-4.8l-4.34,1.76c-5.29,2.16-.69-2.35,6.16-6,4.38-2.37,8-4.83,8-5.47s-1.93-.18-4.28,1c-6,3.12-8.74,2.69-4.42-.69,2-1.55,4.28-2.86,5.07-2.89s3.08-1.42,5.07-3.07c2.94-2.43,3.08-2.81.73-2-11.22,4-10.12,1.11,1.92-5,7.88-4,15.38-10.27,12.25-10.27a5.51,5.51,0,0,0-3.21,2.06c-2.19,2.63-10.24,5.52-10.24,3.67,0-.75,2.16-2.51,4.8-3.91,13.68-7.25,19.11-12.13,10-8.94-5.92,2.06-9.6.73-3.89-1.41A54.6,54.6,0,0,0,294,817.9,61.41,61.41,0,0,1,304.84,811c6.15-3.1,18.93-14,16.4-14-.89,0-11.71,6.52-23.57,14.2-3.94,2.55-8,4.63-9.05,4.63-3,0-2.18-2.61,1.19-3.67,4.58-1.46,13.09-6.72,12.24-7.57-.41-.4-2.74.09-5.18,1.1-6.57,2.72-7,.66-.5-2.64a35,35,0,0,0,8.47-6.09,49.65,49.65,0,0,1,8.7-6.85,78.26,78.26,0,0,0,9.78-7.32c2.9-2.71,4-3.12,4-1.52,0,2.4-9.18,10.34-15,13-3.86,1.76-6.29,5.62-3.54,5.62,7.46,0,26.61-22.37,22.94-26.79-1.13-1.36-1.15-2.22-.07-2.89a1.72,1.72,0,0,0,.68-2.34c-.47-.77-3.54.58-6.83,3-6.36,4.68-9.82,5.8-6.84,2.22a5.88,5.88,0,0,1,3.65-2.17c2.9,0,10.84-9.9,10.79-13.46,0-3.07-.17-3-3,.78-1.63,2.19-4,4-5.28,4-1.92,0-1.81-.54.63-3.26,4.54-5,5.47-8.73,1.91-7.6s-3.73-1-.17-4.19c2.65-2.39,2.63-2.72-.55-13.62-10.08-34.55-12.75-47.34-12.87-61.53-.11-15-.24-15.1-8.87-4.12a119.17,119.17,0,0,1-14.22,14.83,98.57,98.57,0,0,0-9.93,9.29,50.44,50.44,0,0,1-8.33,7.1c-7.08,4.9-8.08,14.3-3.07,28.86,5.21,15.16,4.21,22.79-4.57,34.72-2.63,3.58-6.42,9.26-8.41,12.61-3.65,6.16-11.39,14.64-23.09,25.31-23.94,21.84-39.75,60.83-48.64,119.94-2.52,16.76-4.57,24.23-6.66,24.23-1.64,0-1.64-1.55,0-9.13.74-3.35,2.08-12,3-19.12,1.45-11.45,6.16-34.05,10-48.18,1.73-6.29.23-6.08-11.37,1.58-5.24,3.47-13.44,8.8-18.22,11.87A208.4,208.4,0,0,0,143.54,895c-5,4.24-11,8.66-13.24,9.83-4.44,2.29-7.31,8.57-7.31,16,0,4.41-2.91,14-9.94,32.9-4,10.71-3.9,15,.45,20.72A28,28,0,0,1,118,983.3a46.07,46.07,0,0,0,3.29,8.88c4.89,9.65-6.55,11.85-13.89,2.66a36.75,36.75,0,0,0-7.81-6.37c-10.26-6.29-13.33-14.25-12.39-32.13,1-18.84-.5-22.85-13.22-35.37-6.49-6.4-9.09-10.17-10.28-14.92-.88-3.49-2.5-6.69-3.59-7.11-4.7-1.81-9.95-17.86-9-27.44.5-5,.3-10.68-.46-12.68-.88-2.31-.88-7,0-12.84.76-5.06,2-14.58,2.82-21.16,1.8-14.9,4.85-23.15,10.37-28.07,2.36-2.1,4.14-4.71,4-5.8a9.44,9.44,0,0,1,.49-4.15,47.26,47.26,0,0,0,1.57-7.47C71,771.55,84,740.07,89.2,732.69c9.94-14.1,41.71-36.58,74.47-52.68,28.3-13.92,29.52-15.06,18.62-17.58-11.26-2.6-15.57-2.13-21.41,2.35-10.36,7.94-21.24,9.89-27.93,5a71.9,71.9,0,0,0-6.35-4.12c-4.33-2.39-8.92-11.53-9.88-19.67a40.8,40.8,0,0,0-5-14c-10.88-17.91-11-20.63-1.7-41,7.53-16.46,7-29.49-.58-15.34-5.33,9.89-15.36,12.51-19.24,5-3-5.71-1.49-12.63,6.65-31.49,3-6.82,7.21-17.16,9.48-23,5-12.89,4.49-12.55,15.3-9.78,10.17,2.6,18.14,2.91,19.48.76.5-.83,3.12-1.32,5.81-1.09,6.31.53,6.63-2.26.37-3.21-4.41-.68-4.73-1.09-4.29-5.56.75-7.74-4.38-5.65-6.37,2.59-2.12,8.76-5.39,9.8-4.09,1.29,2.05-13.4,10.06-15.35,42.94-10.47l5.42.81-4.11-7.83a68.25,68.25,0,0,1-4.94-11.35c-.44-1.94-2.88-10.71-5.4-19.47-5.27-18.35-11.81-43.9-14.44-56.51-1.85-8.84-5.19-21.69-7.35-28.26a71.08,71.08,0,0,1-2.07-9.42c-1-6.55-2.27-12.72-6.78-33l-3.15-14.13h-5.35c-10.74,0-13.72-9-4.22-12.7,5.18-2,5.83-2.79,5.2-6-1.5-7.75-6.1-22.57-7.14-23-.6-.26-1.08-2.24-1.08-4.4s-1.31-6.48-2.9-9.6-2.91-7.67-2.92-10.09c0-13.89-24.81-71.54-33.46-77.9-22.83-16.81,24.11-37.22,64.63-28.1,25.89,5.83,68.3,6.59,47.1.85-13.4-3.63-18.84-5.81-18.84-7.56,0-1-6.92-1.2-21.92-.5-19.45.9-21.83.77-21.06-1.22.58-1.53-.17-2.44-2.35-2.87L110,134.88c-10.36-2-18.55-4.69-25.69-8.34q-15.54-8-11.08-.77c2.13,3.45,22.86,11.52,36.74,14.31,6.39,1.28,11.62,2.93,11.62,3.67s-1.14,1-2.53.64-5.8-1.1-9.78-1.59a121,121,0,0,1-17.07-3.94c-10.54-3.27-12.89-2.82-9.94,1.9,2.32,3.71,1.18,5.18-1.46,1.88-1.08-1.34-3.8-4.3-6.05-6.57-5.75-5.8-11.32-14.31-10.37-15.85,1.88-3,10.32-3.09,15.29-.08,11.65,7,22.06,10.47,42.28,14,10.48,1.81,14.12,3,14.12,4.61s1.29,2,6.16,1.33c3.39-.46,13-1.21,21.38-1.68,30.31-1.7,80.06-6.29,117.36-10.85,5.18-.63,19.53-2.18,31.88-3.43s24.42-2.63,26.81-3c4.52-.79,15.88-2.29,44.26-5.87,9.2-1.16,20.28-1.76,24.63-1.33s16.71,1.33,27.46,2c53.35,3.37,88.89,47,60.22,74-13.78,12.95-14.54,14.55-9.46,20,3.68,3.95,17.15,12.63,21.81,14.05,12.66,3.86,26.34,17.12,27.65,26.81.66,4.87,2.2,5.75,10.11,5.77,8.83,0,10-2.76,4.13-10.13a75.51,75.51,0,0,1-8-14c-6.13-14.17-7-15.4-11.87-17-14.41-4.83-20.32-22.28-12.6-37.22,2.21-4.25,2.15-4.68-1.32-9.75-6-8.75-7.35-23.8-3.08-34,1.57-3.78,6.47-5.18,11.56-3.32l4.35,1.59-5.76.75c-7.74,1-9.84,5-8.86,17,1.32,16,5.64,20.94,11.86,13.55,2-2.33,5.42-4.65,7.68-5.14a15.87,15.87,0,0,0,7.19-4.46c1.7-2,4.4-3.55,6-3.55a2.56,2.56,0,0,0,2.9-2.9c0-1.61,1-2.89,2.18-2.89,2.41,0,2.93-2.26.81-3.57-.75-.46-2,.31-2.81,1.72-1.37,2.41-1.57,2.42-3.35.1a15.37,15.37,0,0,0-5.88-4c-2.19-.81-4-2.47-4-3.69,0-2.65,1.68-2.85,4.06-.47,1.35,1.35,1.77,0,1.89-6.16.14-7.74.17-7.8,1.58-2.82,2.72,9.6,3.87,11.57,6.26,10.66,5.28-2,9.44-16.46,4.74-16.46-.8,0-1.07-1-.61-2.17.62-1.64-.26-2.17-3.61-2.17-11,0-19.1,10.56-19.12,25,0,4.58-.56,8.33-1.22,8.33s-1.21-.94-1.21-2.09a4,4,0,0,0-1.67-3.11c-1.21-.76-1.39,1-.67,6.43,1,7.74-.58,9.94-3.41,4.66-1.65-3.08-2-11.59-.62-15.19,1.18-3.07,3.44-2.91,3.59.25.07,1.39,1-.88,2-5.05,3.63-14.95,12.91-23.57,25.4-23.57,4.91,0,6.71-.8,9.65-4.3,5.37-6.38,13.14-7.47,17.18-2.41,2.55,3.2,3.84,3.7,7.61,3,9.29-1.86,14.85,8.78,14.87,28.46,0,11.18,2.2,18.74,5.44,18.76,2.2,0,2.46-9.12.37-13-3.63-6.78,2.5-9.49,8.61-3.82a24.87,24.87,0,0,0,8,4.79c7.26,2.25,10.29,10.31,8.08,21.46-1,4.93-1.34,11.31-.8,14.18.62,3.3.15,7.79-1.27,12.19A101.92,101.92,0,0,0,629.3,205c-.54,4-1.52,8.28-2.18,9.56a3.36,3.36,0,0,0,.31,3.82c1.05,1,1,1.8-.06,2.48-3.75,2.32-1.94,31.16,2,32.68,5.17,2,4.5,4.8-2.24,9.47-9.06,6.28-19.61,20.36-30.36,40.52a108.33,108.33,0,0,1-34.49,38.95c-17.49,12.37-30.59,23.49-32.26,27.39-2.36,5.46-1.19,6.07,4.62,2.42,2.69-1.69,10.77-6.37,17.94-10.39s15.07-9,17.55-11.1,8.18-6.67,12.68-10.18,8.17-7,8.17-7.83,1.63-3.59,3.62-6.21,3.62-5.1,3.62-5.54c0-.8,9.41-14.51,18.75-27.33,2.75-3.77,5.49-6.84,6.09-6.84s3.19-3,5.75-6.75c5.21-7.58,18.53-21.46,21.56-22.47s.28-4.11-3.69-4.11c-2,0-3.54-.58-3.54-1.3,0-1.65,3.64-3.05,7.93-3.05,1.84,0,3.76-1.07,4.26-2.38,1.35-3.51,0-4-3.73-1.39-7.28,5.1-13.51,1.9-8.56-4.41,1.65-2.09,3-5.18,2.91-6.87-.08-2.91-.17-2.93-1.81-.37-4.44,6.94-7,9.44-9,8.68-2.76-1.06-2.7-4.83.13-8.87,1.74-2.48,1.82-3.22.36-3.22-1.87,0-5.95-10.19-4.61-11.53.37-.37,2,.12,3.54,1.11,3.37,2.1,8.6,0,8.6-3.4a2,2,0,0,1,1.91-2.12c3.33,0,7.82-10.5,9.52-22.27l1.64-11.41-6.69-10.16c-32.23-48.92,1.19-69.53,99.39-61.27,15.55,1.31,38.37,3,50.72,3.69s28,2,34.78,2.8,22.09,2.5,34,3.74,27.27,2.94,34,3.79c17.33,2.15,64.92,3.79,71,2.45a75.52,75.52,0,0,1,12.87-1.17c18.48-.08,42.87-5.31,60.87-13,8.3-3.57,11-4.19,11.86-2.74,1.79,2.91.18,4.68-17.13,18.74a52.46,52.46,0,0,1-8.24,4.22,37.22,37.22,0,0,0-9.43,5.75c-1.64,1.64-4.13,2.94-5.52,2.87s-1.81-.4-.73-.84a3.18,3.18,0,0,0,1.81-2.75c0-2.32,5.33-5.33,14-7.92,3.67-1.09,8.5-4.3,12.26-8.13,7.22-7.36,7.09-7.46-3.43-2.81-26.16,11.57-117.1,15.7-160.2,7.27-6.14-1.2-17.36-2.79-24.93-3.53s-22.9-2.34-34-3.54c-28.1-3-32.6-3-32.6.44s5.59,4.45,26.08,4.68c19.84.23,33.54,1.79,29.94,3.42-1.47.66-15.4.52-31-.31-25.28-1.35-28.86-1.26-33.56.88-5.21,2.36-5,2.4,17,2.79,20,.36,22,.62,19.56,2.55-3.69,2.87,8.48,1.66,23.73-2.36,9.26-2.44,10.94-2.52,13.76-.71,2.6,1.66,6.3,1.83,19.16.87,8.77-.66,16.21-.93,16.54-.61,1.77,1.72-2.95,2.52-18.72,3.17-9.6.39-17.84,1.33-18.31,2.09s7.19,1,20.69.43c15.26-.68,20.9-.51,19.36.57-1.19.84-6.53,1.54-11.87,1.55s-10.09.67-10.59,1.47,3.13,1.45,10.06,1.45c6.55,0,11,.6,11,1.49s-4.27,1.25-12,.81c-6.58-.37-22.71-1.08-35.86-1.56-30.65-1.14-133.23-7-167.28-9.5-18.27-1.36-25.09-.41-19.91,2.79,2,1.22,28.8,3.91,52.43,5.27,31.89,1.84,39.83,2.35,68.1,4.36,16.34,1.16,46.33,3.11,66.66,4.34s45.67,2.94,56.33,3.81,22.29,1.17,25.84.69,7.71-.21,9.35.67c4.22,2.25,5.15.33,2.27-4.69s-3.16-7-1.16-7c7.71,0,14.63,32.51,8.26,38.8-2.4,2.37-2.48,2.12-1.57-4.81.74-5.7.45-7.73-1.31-9.19-2.92-2.42-4.59,3.18-3.33,11.13,3.39,21.3-2.83,36.25-17.33,41.68-3.89,1.45-11.64,5.7-17.22,9.43-12,8.05-36.78,17.44-59.41,22.54-24.36,5.49-32,8.19-51,18.07l-17.55,9.11-15-3.35c-27.93-6.24-33.8-7.24-42.76-7.3l-8.94-.05-7.36,12.68c-4,7-7.36,13.79-7.36,15.16,0,3,5.46,17.24,7.33,19.15,2.59,2.66,3-.43.64-5-1.31-2.54-1.92-5.05-1.36-5.57s1.28-.27,1.58.56c2,5.47,6.31,11.61,8.51,12s2.07-.38-1.26-6.05c-2.12-3.61-3.82-7.76-3.8-9.21s2.4,1.48,5.26,6.52c5.85,10.28,10.17,10.71,4.95.49-3.39-6.65-3.57-7.47-1.68-7.47.74,0,2.09,2.28,3,5.07s2.23,5.07,2.91,5.07,1.65,1.3,2.16,2.9c.64,2,2.19,2.89,5.17,2.89,5.25,0,5.24-.87-.16-7.19-2.36-2.76-4.29-5.53-4.29-6.15,0-2.53,2.35-.84,5.42,3.9s11.41,10.48,13,8.9c.42-.42-1.25-3.2-3.71-6.18-5.43-6.59-4.69-8.38,1.14-2.79,2.33,2.23,4.95,3.58,5.87,3s2.92.12,4.46,1.52c2.91,2.62,4,1,1.24-1.81-1-1-1.09-1.88-.12-2.48.81-.5,2.87,1.06,4.58,3.46s4.42,4.37,6.13,4.37c2.93,0,2.94-.09.39-2.91-1.45-1.6-2.25-3.29-1.78-3.76s2.32.84,4.12,2.91c5.31,6.11,9,5.06,4.75-1.37-2-3-2-3.57-.24-3.57,1.16,0,2.86,1.63,3.76,3.62s2.73,3.63,4,3.63c2,0,2.06-.39.54-2.21-2.63-3.18-.48-4.5,2.67-1.65,3.54,3.2,7.2,3.36,4.58.2s-.55-4.53,2.56-1.87c5,4.29,6.55,4.68,5.5,1.36-1.16-3.65.28-3.91,4.69-.82,2.87,2,3.22,2,3.22,0,0-1.69,1-2,4.37-1.34,3.68.73,4.23.49,3.44-1.56s-.29-2.27,3.11-1.42,3.9.64,3.08-1.49-.33-2.37,3.38-1.55,4.21.58,3.41-1.5-.2-2.33,5.29-1.4c5.24.89,6.1.7,5.39-1.14-1.22-3.18.19-3.94,4.37-2.35,5.22,2,10.27.34,6.78-2.21s-.34-4.2,4-2.21a8.44,8.44,0,0,0,7,.11c3.6-1.43,3.6-1.43.26-1.52-2.05-.06-3-.72-2.37-1.68s2.89-1.31,5.22-1c3.21.47,4.05.12,3.46-1.42s.3-2,3.19-1.78c6.49.43,7.61.08,7.61-2.38,0-1.62.88-2.12,2.83-1.61a7.26,7.26,0,0,0,5.43-1.23c1.56-1.18,1.88-2,.79-2-4.36-.11-1.3-2.95,3.18-2.95,5.06,0,7.86-2,5.18-3.6-3.06-1.89-1.29-3.64,3.7-3.64,4.51,0,5.05-.37,4.24-2.9-.75-2.38-.26-2.9,2.77-2.9a7.37,7.37,0,0,0,6.06-3.62c1.31-2,3.3-3.62,4.43-3.62a3.49,3.49,0,0,0,2.9-2.23c.47-1.22,5-5.16,10-8.74s9.35-7,9.6-7.56,2.73-2.9,5.49-5.19a36.38,36.38,0,0,0,6.52-6.72c.83-1.42,4.46-7,8.07-12.51,13.83-20.89,18.39-32.27,16.82-41.92-.38-2.34-.76-4.9-.83-5.69s-.76-.48-1.51.71a8.11,8.11,0,0,0-.55,5.43c1,4.19-1.25,4.19-5.74,0-2.68-2.5-3.35-4.33-2.84-7.78.8-5.38-2-11.29-8.17-17.13-5.63-5.35-5.67-3-.13,8.11,4.78,9.63,5.93,20.06,2.21,20.06-1.56,0-1.92-1.08-1.34-4,.88-4.44-6.63-23-10.49-26-5.39-4.1,2.34-6.4,9.34-2.78,5.62,2.9,8.75,6.81,11.89,14.83l2.75,7.05.07-6.3c.06-6.46-4.59-13-12.24-17.25-1.59-.87-2.47-2-2-2.53s3.49.67,6.6,2.64c6,3.8,13.45,3.85,13.45.09,0-1.5,2.31-2,9-2a159.42,159.42,0,0,0,21.79-2.23c7-1.23,13.35-1.84,14.12-1.36,3.3,2,.92,3.59-5.48,3.59-16.2,0-39.09,3.34-33.67,4.92L983,142.6l-6.92.78c-3.81.44-6.91,1.28-6.9,1.88.06,3.67,2,12.7,2.77,12.8.5.07,5.47.33,11.05.57s14.7.84,20.28,1.32,15.69,1.2,22.46,1.58,19.68,1.44,28.69,2.35,16.81,1.21,17.34.67c2-2-3.52-3.67-12-3.7-4.78,0-15.86-.65-24.63-1.41-12.43-1.07-34.44-2.38-48.9-2.91-.6,0-1.09-.79-1.09-1.7,0-1.76,23.63-.94,47.82,1.67,6.77.73,18.2,1.69,25.39,2.13l13.08.79,1.75-4.63c2.29-6.08,3.67-5.66-20.88-6.39-46.13-1.39-85.74-5.82-51.95-5.82,6.78,0,12.32.44,12.32,1s7.34,1.08,16.3,1.2,23.35.57,32,1c15.56.81,18.22.51,58.83-6.75,27-4.82,37.62,10.23,24.86,35.2-5.94,11.61-6.46,11.8-19.67,6.87a127.18,127.18,0,0,0-22.17-5.77c-5.9-.82-11.32-1.86-12.06-2.31s-5.07-1-9.63-1.27c-10.38-.54-43.86-3.13-77.51-6-26.31-2.24-28.59-2.1-28.59,1.83,0,2.23,1.73,2.17,7.6-.25,1.41-.58,2.54-.4,2.54.39s-1.89,2.21-4.21,3.17c-4.25,1.76-5.88,5-5.91,11.69a13.66,13.66,0,0,1-2,6.52c-1.08,1.57-4.1,6.77-6.73,11.55a127.23,127.23,0,0,1-8.9,14c-2.28,2.91-4.14,6-4.14,7,0,1.88-3.49,5.33-18.11,17.86-5.58,4.78-16.41,14.46-24.06,21.51-15,13.83-25.16,21.3-33.18,24.45a42.73,42.73,0,0,0-8.42,4.55,33.48,33.48,0,0,1-8.69,4.18c-2.94.9-6.65,2.22-8.24,2.94s-8.44,3.21-15.22,5.53-15.4,5.59-19.17,7.23a85.16,85.16,0,0,1-15.94,4.59c-5,.88-12,2.27-15.6,3.09s-14.51,1.86-24.27,2.3l-17.75.8v4.06c0,11.57-12.92,30.3-20.9,30.3-1.29,0-4.43,3-7,6.57-5.71,8.1-8.62,8.92-17.62,4.94-5-2.21-8.61-2.88-12.35-2.28-13,2.08-24.19-6.33-22.76-17.1,1.86-14.07,2.18-17.31,1.41-14.59-8.7,30.73-23.2,54.34-33.38,54.34-2.6,0-4.47,4.32-4.39,10.14a73.72,73.72,0,0,1-1,11.41c-.61,3.49-1.28,16.21-1.49,28.26-.64,38.14-7.73,70.38-19,86.39-2.52,3.59-5.61,8.48-6.87,10.87-3.61,6.88-18.88,21.93-25.81,25.43a115.71,115.71,0,0,0-13,8.08c-16.5,12-35.24,12.66-45.07,1.53l-4-4.5v8.3c0,9.23-4.06,26-9.34,38.45-1.91,4.51-5,11.85-6.89,16.31-6.35,15-14.73,24.49-21.68,24.49-8.55,0-19.58-8.56-24.47-19-4.31-9.21-5.48-7-5.62,10.43-.07,8.64.73,14.88,2.62,20.37,7.05,20.5,2.7,37-10.65,40.46-21.6,5.55-21.38,5.35-18.82,17.32,3.2,14.91.88,20.32-9.59,22.33l-8.44,1.62c-2.8.54-5.48,2.72-8,6.48-2.07,3.12-7.7,9.42-12.52,14-12.81,12.2-17.85,20.77-19,32.28-4,40.48-10.62,62.34-18.77,62.34-.65,0-1.91,2.77-2.8,6.16s-4.08,11.38-7.11,17.75S324.44,899,324,902.32c-1.75,13.88-23.83,52.29-37.28,64.87-4,3.74-10.23,15-14.62,26.45-.68,1.79-1.92,3.26-2.73,3.26-2.17,0-1.82-9.71.37-10.55,1-.39,3.95-5,6.49-10.19s5.77-10.34,7.19-11.4c7.33-5.48,21.63-26.55,26.63-39.24,3.13-7.93,3-9.74-1.95-26.43l-3-10.14-2.5,12.31c-3.39,16.72-6,25.74-6.79,23.51-.37-1,.05-4.93.93-8.69,2.54-10.86,5.92-47.05,5.92-63.44,0-22.5,1.78-29.06,9.9-36.41,9.89-9,6.18-9.37-4.1-.46-11.75,10.18-11.59,9.69-11.66,35.05-.06,21-1.17,34.23-4.1,49-2.21,11.15-6.3,26.7-7.62,29-.7,1.19-2,3.8-2.88,5.79s-1.91,2.85-2.27,1.9.28-3.23,1.41-5.07,2.88-7.26,3.88-12,2.66-12.28,3.68-16.67a151.1,151.1,0,0,0,2.53-21c.37-7.17.4-10.88.06-8.25s-2.85,8.61-5.59,13.29-5,9.2-5,10.06c0,2.12-11.15,13.16-13.29,13.16-.94,0-.2-1.6,1.63-3.55l3.34-3.55-3.81-1c-2.38-.6-3.81-2-3.81-3.61a4.74,4.74,0,0,0-1.67-3.7c-2.84-1.75-.27,13.5,3.06,18.17,1.63,2.29,3,4.76,3,5.5s1.57,5.2,3.49,9.91,3.18,9.07,2.81,9.67c-1.32,2.14-3.4,1-3.4-1.81,0-3.57-3.89-3.86-4.85-.36-2.7,9.84-2.39,23.54.54,23.54.63,0,1.58-2.5,2.1-5.55,1.17-6.94,6.86-16.63,7.65-13,.29,1.34-.41,4.28-1.56,6.52s-2.92,8.81-3.94,14.59-2.4,10.5-3.07,10.5c-1.78,0-1.49,4,.34,4.63.95.32,1.16,2.09.54,4.57-2.13,8.51-5.6-5.2-7.32-28.93-.86-11.87-.63-13.88,2.24-19.64l3.21-6.42-5.07-12.24c-2.8-6.73-5.62-12.24-6.28-12.24-3.32,0-43.94,66.29-43.94,71.72,0,.73-1.58,3.65-3.51,6.49s-5.31,9.88-7.51,15.64-4.88,11.53-6,12.82c-3.09,3.7-8.61,22.78-9.77,33.77a122.52,122.52,0,0,1-4.7,21,106.44,106.44,0,0,0-4.38,20.4c-.89,11-3.27,14.49-9.94,14.49-3.26,0-5-.8-5.53-2.54ZM120.1,996.31c0-.32-2.37-3.42-5.27-6.88-4.19-5-4.78-6.39-2.9-6.77,3.51-.69,2.87-3-1.25-4.6-3-1.15-3.66-2.4-3.85-7.57-.36-9.71,0-11.21,5.3-24.63a129.88,129.88,0,0,0,6.63-23.18c2.16-14.2,3.74-17.92,9.06-21.29,2.81-1.77,4.53-4.08,4.55-6.07,0-1.77,1-3.53,2.08-3.91,1.41-.47,1.76.06,1.14,1.69-.5,1.3-.44,2.36.13,2.35,2.4-.05,4.5-2.44,5.44-6.2.76-3,1.65-3.81,3.66-3.17s3.28-.36,5-3.65c1.81-3.49,3-4.29,5.25-3.57s3.12.17,3.71-2.1,2-3,4.83-3c3.25,0,4.37-.92,5.71-4.71,1.51-4.26,1.84-4.47,3.54-2.2,2.07,2.78,5.72,0,9.43-7.21,1.91-3.7,4.86-4.5,3.5-.94-.65,1.7-.17,2.18,1.81,1.8s3.08-2.41,3.92-6.67c1.09-5.54,3.94-8.72,3.94-4.41,0,3.13,2.35-.75,5.87-9.71,7.58-19.25,19.68-35.46,37.3-49.94,8.06-6.63,19.43-21.58,26.22-34.46,2.05-3.9,1.46-4-4.62-.86-2.55,1.32-11.17,4.5-19.17,7.06-25.07,8-42.95,18.52-64.1,37.56-6.11,5.5-16.27,19.23-16.27,22,0,.73-4.85,6.84-10.78,13.59s-10.53,12.51-10.22,12.81c1.3,1.3,11.1-6.18,13.05-10,2.79-5.39,5.05-6.68,5.05-2.87,0,5.76-12.66,17.41-18.91,17.41-4.78,0-7,1.34-17,10.5-12.91,11.81-27.44,21-35.09,22.14C65,888,62.14,902.46,79.69,921c12,12.63,10.19,7.5,11.25,32.53,1,23.8,3.91,30.85,13.45,32.75a7.22,7.22,0,0,1,5.77,4.62c1.75,4.6,9.94,9.05,9.94,5.4Zm198.32-93.88a10.1,10.1,0,0,0-2.72-3.34c-2.32-1.44-1.66-4,.79-3.08,3.05,1.18,4-2.12,2.33-8-1-3.61-1.44-4-1.53-1.65a4.16,4.16,0,0,1-3.51,4.07c-3.63.92-1.65,15.78,2.45,18.36,2.21,1.38,3.8-3.28,2.19-6.39Zm-39.64-9.72c.86-2.88.62-3.31-1.42-2.53a15,15,0,0,1-3.43,1c-.53,0-1,2.31-1.08,5.14C272.72,902.15,276.65,899.79,278.78,892.71Zm-213.06,0c1.43-4.5,10.25-10.22,18-11.7,13-2.46,23.58-9.23,44.3-28.26l5.79-5.33-7.61.9c-13.09,1.54-21.47-5.13-23-18.27-.53-4.66-1.4-8.47-1.94-8.47-3.83,0-10.8-20.65-8.39-24.85,1.38-2.4,2.5-5.57,2.5-7s1.63-4,3.63-5.52,3.62-3.27,3.62-3.79c0-5.3,42.11-51.53,46.94-51.53,3.11,0,3,2.49-.21,3.51-8.55,2.75-37.7,38.2-49.28,60l-4.86,9.13,5.88,10.9c3.23,6,5.87,12.53,5.87,14.51,0,6.22,14.81-1.47,29.51-15.31l7-6.63-1-13.4c-1-13.43-.19-18.52,2.26-14.65.68,1.08,1.3,5.55,1.37,9.94.19,12.19,1.49,14.45,5.44,9.43,1.75-2.22,3.17-4.92,3.17-6s.5-2,1.1-2c2,0,5.05-6.12,3.58-7.07-.77-.49-2.82-3.72-4.57-7.17-2.44-4.81-3.76-6-5.63-5.27-10.24,4.22-9.39,1.75,2.37-6.87,4.52-3.33,11.39-8.69,15.27-11.93s10.07-8.4,13.77-11.47,12.91-11.58,20.48-18.9c8.23-7.95,18.72-16.29,26.08-20.74,14.89-9,29.34-19.63,46.13-34,6.91-5.9,16-13.29,20.16-16.41,10.91-8.16,10.24-8.77-11.23-10.35l-12.31-.9-5.75,7.06c-17.15,21.08-48.17,44.67-74.67,56.81-3.59,1.64-14.19,6.6-23.57,11s-17.85,8-18.84,8c-3.43-.09,4.13-4.69,20.67-12.57,9.17-4.37,22-10.5,28.53-13.63,24.87-11.93,79.64-60.71,62.4-55.58-6.21,1.85-12,7-23.32,20.54-6.25,7.5-14.08,15.54-17.39,17.86a93.68,93.68,0,0,0-8.32,6.43c-1.26,1.22-2.93,2.22-3.7,2.22s-4.63,2-8.57,4.56c-5.2,3.3-8.72,4.5-12.82,4.34-3.11-.11-6.37.39-7.25,1.12s-8.68,5-17.34,9.48c-15.32,7.92-42.93,27-42.93,29.62,0,.72-2.12,3.86-4.71,7C105.39,750,94.88,773.14,94.57,781c-.31,7.62-3.33,8.92-5.15,2.2-2.34-8.62,20.51-48.26,34.21-59.35,8.65-7,29.5-19.38,49.93-29.65S208.66,674.63,215,668l4.35-4.57-10.87,1c-6.48.62-12.33,2-14.49,3.56-2,1.38-14.89,8.46-28.67,15.73-25.95,13.68-38.3,21-46.22,27.55-2.54,2.08-8.49,6.72-13.22,10.31-23.51,17.82-37.95,64.81-32,104.33,4.17,27.92-.36,40.26-14.26,38.81-4-.41-4-.39-4,9,0,14.31,7.25,27.89,10.1,18.92ZM60,872.46c.75-.7,4.73-2.36,8.83-3.69,10.8-3.5,20.3-10.34,24.63-17.72,4-6.84,5.81-7.37,4.27-1.25-2.18,8.7-24.35,23.93-34.84,23.93C60.4,873.73,59.22,873.22,60,872.46Zm54-63.57c-2.66-4.64-4.45-17.79-2.78-20.49,1.44-2.31,2.94,2.7,3,10,.1,11.46,2.86,11.22,6.47-.56,1.44-4.7,5.79-13.92,9.67-20.51s7-12.39,7-12.9a6.14,6.14,0,0,1,1.51-2.68c.82-1,4.18-6,7.46-11.17,16.09-25.38,44.65-50.41,44.65-39.12,0,2.23-1,2.9-4.2,2.9-15.18,0-58.83,62.55-66,94.54-.49,2.19-1.71,4-2.72,4S115.34,811.08,114.08,808.89ZM271.33,885c1.48-5.54.93-6.29-2-2.73-3.35,4-3.63,6-.84,6,1.1,0,2.4-1.46,2.88-3.26Zm56.49-1.58c8.43-17.77,9.82-65.39,2.49-85.44-5.87-16-13.57,35.8-10,67.1.77,6.77,1.61,14.27,1.85,16.66.67,6.52.67,6.52,2.05,6.52.7,0,2.31-2.17,3.58-4.84Zm-43.19-3.07c1.48-2.76,2.24-5.47,1.67-6s-1-.26-1,.67c0,3.42-5.73,1.75-6.65-1.93-.5-2-1.49-3.62-2.2-3.62-2.11,0-1.47,5.29.88,7.24a7.66,7.66,0,0,1,2.17,5.25c0,4.88,2,4.27,5.15-1.57Zm28.72-.78a6.11,6.11,0,0,1,3.55,1.77c1.41,1.41,1.13-6.33-.31-8.52-1-1.55-8.13,1.86-8.13,3.9,0,4.46,2,8.53,2.6,5.39.28-1.4,1.31-2.54,2.29-2.54Zm-27.56-20.14c-3.88-4.53-5.32-.44-1.49,4.23,2.67,3.25,3.22,3.45,3.6,1.3C288.15,863.52,287.2,861,285.79,859.39Zm29.61-.94c-1.23-1.22-6.94,1.27-6.94,3,0,3.11,6.44,3.27,7,.17.27-1.47.24-2.91-.06-3.21Zm-248-1.51c2.76-4.21,2.95-10.31,1.2-37.91-1.17-18.5-1.68-19.69-6.28-14.74-2.29,2.45-2.81,5.24-2.9,15.36-.05,6.8-.76,13.15-1.57,14.13S56.21,838.44,56,842s-.9,7.15-1.46,8c-4.36,6.94,8.41,13.79,12.91,6.93ZM341.79,853a8.36,8.36,0,0,1,1.81-5.14c3.7-3.7,2.09-52.67-2.15-65.42-2-6-3.93-9.89-4.31-8.7l-2.31,7c-1.24,3.75-1,11.38,1.22,33.32,1.56,15.65,2.83,31.56,2.84,35.34s.65,6.89,1.45,6.89S341.79,854.85,341.79,853Zm-29.26.33a1.93,1.93,0,0,0-3.79,0c-.28.86.57,1.56,1.9,1.56S312.82,854.2,312.53,853.34Zm-23.84-5.5c.81-4.23.64-4.65-1.24-3.08-2.24,1.86-2.9,6-1.2,7.72C287.51,853.75,287.6,853.58,288.69,847.84Zm27-2.36c0-4.44-.45-5.07-3.62-5.07-2.92,0-3.63.72-3.63,3.71,0,2,.58,3.35,1.29,2.91s2.09.18,3.07,1.36C315.39,851.48,315.71,851.16,315.71,845.48Zm-177.35-4c10.79-8.44,17.38-18.35,21.77-32.72s4-15.62-2.32-5.88c-8.3,12.81-33.49,34.62-40,34.62-5.06,0-4.64-.5,6.24-7.33,9.68-6.07,28.83-24.1,27.26-25.66-.44-.45-4.23,2.5-8.42,6.56-13.08,12.66-13.38,12.89-27,20.14-8.81,4.69-8.76,4.52-3,9.26C119.59,846.06,131.9,846.55,138.36,841.49Zm150.55-9.79c3.87-4.28,1.8-5-2.19-.71-1.87,2-2.73,3.62-1.92,3.62S287.46,833.3,288.91,831.7Zm26.18-6.89c-.48-.48-1.68-.07-2.65.9-1.4,1.4-1.32,2.06.38,3.13C315,830.21,317,826.72,315.09,824.81Zm36.5-27.51c-.5-3.71-.61-3.61-1.7,1.44-.65,3-.65,6.57,0,8,1.43,3.15,2.56-3.06,1.71-9.41Zm-178.3,0c3-3,8.08-7.57,11.25-10.14l5.77-4.68h-4.93c-2.71,0-6.12,1.08-7.57,2.4-2.31,2.08-2.65,2.1-2.65.17,0-3.72,3.7-5.6,13.94-7,5.39-.76,11.79-2.71,14.23-4.33l4.43-2.95-10.14.65c-5.58.36-11.61,1.13-13.41,1.71s-3.26.44-3.26-.36c0-2.26,14.2-6.18,22.4-6.18a56.06,56.06,0,0,0,15.41-2.75l22.82-8c24.17-8.48,26.82-10.16,25.81-16.4-1.2-7.4-2.35-8-11.3-5.64-10.93,2.85-30.22,4.57-30.22,2.7,0-2.17,3.75-3.23,11.35-3.21,11.25,0,28.08-4.47,26.82-7.18-.57-1.24-1.3-6-1.62-10.59-.7-10,.24-9.89-12.15-1.45-5.56,3.79-15.56,10.47-22.21,14.86-22.79,15-24.67,16.42-34.56,25.95-13.87,13.35-23.28,28.83-26.29,43.23C166,804,166.59,803.94,173.29,797.27Zm14.91-35.11c0-.79,1.46-1.45,3.25-1.45,3.81,0,25.81-7,27.83-8.87.83-.77.4-1.27-1.09-1.27-4.32,0-2.64-2.54,2.25-3.39,21.38-3.72,28.89-4.2,31.08-2,3.19,3.19-1.17,5.19-16.9,7.72a180.89,180.89,0,0,0-25.19,6.38C196.77,763.65,188.2,764.82,188.2,762.16Zm58-14.57c1.54-1.06.07-1.2-5.07-.52-4,.54-7.52,1.22-7.85,1.51C231.78,749.88,244.2,748.93,246.16,747.59Zm-7.25-18.51c0-1.65,16.37-4.58,17.85-3.19.65.61-1.76,1.85-5.35,2.75C243.68,730.58,238.91,730.75,238.91,729.08Zm111.91,49.38c.38-4.18.22-7.6-.35-7.6-1.25,0-4.15,17.08-3.08,18.16C348.76,790.38,350.11,786.21,350.82,778.46ZM174.21,768.2c20.52-22,24.86-25.45,70.5-55.81,26.09-17.36,29.36-20,48.22-38.36,31-30.21,29.45-42.6-2.23-18.07-16.27,12.61-35.29,28.41-38,31.61a41.53,41.53,0,0,1-7.13,5.09c-11.83,7.06-28.21,21-43.84,37.35-14.86,15.53-25.55,23.22-12.23,8.8,11.12-12-3.4-2.49-20.84,13.71-4,3.7-8.33,7.09-9.65,7.52-2.87.94-4.54,4.59-2.64,5.77,1.32.81,13.41-7.49,19.83-13.63,1.76-1.68,4-3.06,5.07-3,2.15,0-12,13.39-18.05,17-4.28,2.6-5,6-2.24,10.41,2.15,3.44,2.33,3.33,13.25-8.38Zm173.29-6.4c.15-7.14-2.58-4.19-3.59,3.88-1.19,9.53.91,14.57,2.47,5.9A77.83,77.83,0,0,0,347.5,761.8Zm18.26,3.42c2.32-5,2.82-7.41,1.64-7.8s-.33-2.57,2.2-6.25a155,155,0,0,0,9.19-16.83c2.9-6.13,6.19-11.92,7.32-12.85,3.05-2.53,2.56-.86-3,10.44s-5.81,12-3.59,10.65c3.5-2.16,17.35-34.61,17.35-40.65,0-3.31,2.35-6,3.88-4.47,3,3-11.1,34.79-26.23,59.34-3.83,6.22-6.61,11.66-6.18,12.09,2.22,2.21,27.08-26,27.08-30.75a5.84,5.84,0,0,1,2.18-3.51c1.4-1.17,2.18-4.42,2.19-9.23a42.72,42.72,0,0,1,8.76-25.82c5.52-6.93,4.85-7.64-12-12.78-3-.91-5.43-2.18-5.43-2.83s-1.26-1.49-2.8-1.9c-2.55-.66-2.73-1.7-2-11.55.92-12.17.12-13.44-6.44-10.26-11,5.32-13.68,20.6-4,22.69,18,3.88,19.43,13.73,4.35,29.76-5,5.28-10.73,13-12.79,17s-4.83,8.52-6.15,9.83c-2.06,2.07-2.24,4.55-1.34,18.35.57,8.79,1.37,15.64,1.77,15.25a69.42,69.42,0,0,0,4.08-8Zm9.05-88.1c-.78-3.7,1.84-11.76,4.1-12.63,2-.78,4.13,6.83,3.21,11.68C381.42,679.81,375.54,680.57,374.81,677.12Zm-29.7,30.24c-7.65-24.5-8.81-32-5.13-33.23,1.25-.41,1.81,1.23,1.81,5.29,0,6.93,3.69,17,6.66,18.11,1.14.44,2.74,2.54,3.55,4.66,4.43,11.66,2.78-4-2.33-22-2.87-10.15-1.76-13.44,2-6,1.35,2.62,1.51,1.14.84-7.61-1.07-14.11-1.63-15.82-5.42-16.53-1.74-.32-6.64-1.3-10.88-2.17-12.84-2.64-14.29-2.29-16.31,3.85s-2,34.92.09,41.6c.76,2.42,3.12,11.57,5.24,20.34a326,326,0,0,0,11.92,39.51c3.54,9.93,4.21,10.42,5.42,3.94,1-5.2.26-17.28-1.71-28.6-.63-3.63-.39-5.43.7-5.43.9,0,1.64,1,1.64,2.31a3.55,3.55,0,0,0,2.73,3c2.41.63,2.88,2.89,4,19.07l1.22,18.34.9-16.66.89-16.66-7.83-25.1Zm61.15,33.08c.52-.84-.11-1.05-1.53-.5-2,.76-2.23.32-1.33-2.55,1.08-3.46,1.06-3.47-2-.72-1.7,1.52-3.09,3.31-3.09,4,0,1.72,6.88,1.54,8-.21Zm-44.07-9.81a48.44,48.44,0,0,1,3.57-8.31c1-1.6,2.22-7.79,2.74-13.77s1.32-13,1.77-15.58c.52-3,.23-4.71-.79-4.71s-1.61,2-1.61,4.43c0,11-3.4,25.3-6.76,28.47-2.59,2.44-3.38,4.75-3.38,9.87C357.73,738.69,359.6,738.52,362.19,730.63Zm47.34-2.71c5.57-1.49,4.85-14-.72-12.67a37.89,37.89,0,0,0-4.28,1.17,41.79,41.79,0,0,0-1.28,6.31C402.21,729.24,402.8,729.73,409.53,727.92Zm-33.64-28.43c1.24-13.65-1.35-15.61-2.87-2.17-.56,5-1.38,11-1.82,13.4-.72,3.9-.57,4.13,1.44,2.18,1.41-1.37,2.61-6.32,3.25-13.41Zm38.34,8.87c0-1.74-5.55-2.37-7.11-.8-3.85,3.85-1.88,6.83,2.76,4.18C412.27,710.39,414.23,708.86,414.23,708.36ZM365,687.82c1.1-22.87,7.61-34.1,19.87-34.28,1.79,0,3.26-.67,3.26-1.41,0-2.52-2.81-3.14-6.13-1.34-2,1.08-7.69,1.64-14.52,1.42l-11.23-.37.11,7.71c.22,16,2.41,22.1,2.61,7.34.1-7.85.78-13.4,1.63-13.4,1.7,0,2.06,8.12,1.51,34.77-.49,24.12,1.72,23.78,2.89-.44Zm59.41,14.9c4.16-2.12,5.72-3.81,5.66-6.15l-.07-3.23-2.28,3.26c-1.25,1.79-3.37,3.26-4.7,3.26-2.54,0-5.91,2.64-5.91,4.63,0,1.7.95,1.47,7.3-1.77Zm15.2-6.37a19.37,19.37,0,0,0,1.79-9.05l-.55-4.11L439.24,687c-.9,2.11-2.33,4.27-3.18,4.79-1.91,1.18-2.05,9.48-.15,9.48.76,0,2.43-2.23,3.73-5Zm-54.23-4.17c-1.17-1.16-1.59-.44-1.56,2.68,0,3.74.24,3.94,1.6,1.6C386.57,694.54,386.56,693.33,385.41,692.18ZM420,696.11c0-1.26-.78-2-1.73-1.72-2.68.9-3.13,4-.57,4A2.31,2.31,0,0,0,420,696.11ZM434.53,689c0-1.25-1.06-1.68-2.93-1.19-2.29.6-2.57,1.2-1.29,2.75C432.17,692.84,434.53,692,434.53,689ZM422,682.83c1-5.51.21-5.9-3.3-1.57-4.08,5-7.92,2.6-6.66-4.24.68-3.71.53-5-.5-4-4.36,4.24-2.54,14.43,2.72,15.28C420.29,689.31,420.84,688.92,422,682.83Zm-217.31.24c8.13-4.54,28.15-23.05,26.63-24.61-1-1-4.06,1.55-16.84,13.93a87.41,87.41,0,0,1-10,7.85C194.05,687.18,194.2,688.93,204.67,683.07Zm201.26-.48c.64-2.44.13-2.69-4.1-2s-4.94.36-5.79-3c-.52-2.09-1.62-3.8-2.44-3.8-1,0-1.16-4.78-.53-14.12.6-8.76.46-13.37-.36-12.13s-1.8,8.13-2.36,15.62l-1,13.62,4,3.22c7.38,5.89,11.49,6.75,12.57,2.61Zm30.22-4.69a8.5,8.5,0,0,1-3.74-2.58c-2-3.29-6.58-1.7-6.58,2.3,0,3.71.1,3.76,2.81,1.31,3.31-3,5.87-1.91,5.93,2.54.05,3.12.08,3.13,2.21.32C438.73,679.2,438.67,678.83,436.15,677.9Zm9.64-3.1a44.29,44.29,0,0,0-3-11.23c-4.22-9.24-13.72-32.5-14.78-36.16-2.93-10.19-7.87-15.94-13.69-15.94-3.62,0-5.87-.76-6.41-2.18-1.06-2.76-5.27-2.85-5.27-.1,0,13.16,6.18,56.88,8.26,58.43,6.89,5.12,7.09,3.9,2.76-17-5-24.15-6.21-36.42-3.23-32.6a10.92,10.92,0,0,1,2.3,5c0,1.17,1.74,8.87,3.81,17.12,2.32,9.27,3.56,17.74,3.26,22.16l-.5,7.15h5.43c7.17,0,7.65-.24,7.09-3.52-.76-4.48-8.27-28.21-12.31-38.87-2-5.37-3.38-9.78-3-9.78,1.55,0,9.57,20,14.36,35.8,3.9,12.87,6,17.54,9.4,20.7,2.4,2.24,4.37,4.79,4.37,5.67s.41,1.59.91,1.59.6-2.8.21-6.22Zm-40.85-5c-.44-1.4-1.14-10-1.55-19-.71-15.71-3.06-34.85-4.44-36.23s-1.8,2-2.35,28.39L396,670.74l3.68.58c2,.31,4.21.67,4.86.79S405.38,671.18,404.94,669.79Zm-261.77-5.63c4.3-5.46,4.23-5.54-12.85-13.52-3.25-1.53-3.41-4-.44-6.93,3.41-3.42,2.6-6.16-1.83-6.16a9.74,9.74,0,0,1-5.92-2.52c-2.4-2.4-2.47-2.16-1.54,4.71C123.52,661.32,135.35,674.11,143.17,664.16Zm-6.77-1.49c-2.54-1-2.28-6.28.31-6.28,2.36,0,5.54,4.89,4.1,6.33-1,1-1.78,1-4.41-.05Zm15.65,3.1c4.08-2.12,5.78-5,2.92-5-3.47,0-8.79,3-8.79,5C146.18,668.52,146.73,668.52,152.05,665.77ZM217,657.62c5.67-1.1,7.33-1.93,6.16-3.11a7.06,7.06,0,0,1-1.61-4.36c0-1.93-.69-2.5-2.29-1.89a12.92,12.92,0,0,1-3.52.88c-.68,0-1.44,1.47-1.69,3.26-.66,4.63-9.88,5.73-9.88,1.18,0-3.8-3-3.84-6.19-.09-3.62,4.23-8.3,3.82-8.3-.73,0-4.33-1.06-4.45-5.64-.64-4.25,3.54-4,3.76,4.94,5.43A73.18,73.18,0,0,0,217,657.62Zm-56.59-3a5.83,5.83,0,0,0,1.74-2.9c0-2-3.89-1.28-5.8,1-2.3,2.78-4.5,2.82-3.45.07.45-1.16,3.13-3.47,6-5.14l5.14-3-.88-9.4c-1.71-18.36-7-21.55-22.75-13.62-9.53,4.81-9.4,4.64-6.86,9.13a65.44,65.44,0,0,1,4,11.14c2.75,10,5.25,10.57,15.72,3.66,8.4-5.55,8.93-5.78,8.93-3.76,0,.74-1.14,1.73-2.54,2.2-5.61,1.89-12.82,9.36-10.5,10.9,3,2,9.2,1.85,11.3-.25Zm12.48.86c1.25-.48,1.92-1.46,1.48-2.17-1.22-2-5.53-1.56-8.69.83S167.72,657.48,172.86,655.51Zm61.45-7.94c1.66-2.67,1.58-3-.73-2.52a4.19,4.19,0,0,0-3.09,3c-.66,3.46,1.52,3.17,3.82-.5Zm-62.36-.9c5-3.13,17.91-13.4,20-15.91a46.78,46.78,0,0,1,6.84-5.46c8.33-5.65,24.46-19.4,29.5-25.15,2.54-2.9,5.14-4.76,5.77-4.13,1.91,1.91-22.85,24.49-51.68,47.11L178.8,646l15.93-.68c50.84-2.15,63.38-11.55,71.23-53.38a167.8,167.8,0,0,0,2.55-17.75c.06-2.59.52-4.71,1-4.71s1.65-2.92,2.55-6.48c1.9-7.56,9.15-23.09,13.21-28.3s3.58-1-.55,5.47c-5.16,8.08-11.55,26.18-13.39,37.86-1.13,7.17-1.43,7.19,9.58-.56,25.74-18.11,76.9-31.06,97.22-24.61,3,1,3.12.68,2.48-7.12L380,537.6l-15.23-14.87c-38.33-37.4-68.67-51.68-87-41-6.12,3.59-11.65,6.57-12.28,6.62s-4.08,2.33-7.67,5.05c-16.25,12.34-40,20.2-78.08,25.85-18.23,2.71-17.24,1.75-13.2,12.8,1.83,5,3.23,11.54,3.12,14.53-.26,6.71.48,6.76,15.22,1.08,6.21-2.39,12.05-4.34,13-4.34,3.75,0,25.09-12,34-19.17,11.85-9.47,31.17-24.7,36.31-28.62,5-3.78,7.38-3.74,2.83.05-1.91,1.59-3.06,3.3-2.56,3.8.89.88-4.78,7.79-16.77,20.43-3.23,3.4-6.16,5.9-6.51,5.55-1.19-1.19,2.37-6.27,7.66-10.91,7.16-6.29,5.11-7.58-2.22-1.4-15.69,13.22-23.1,19.58-29.58,25.42-4.88,4.39-7.9,6.1-9.74,5.52-1.46-.46-7.08.8-12.48,2.81-28.43,10.56-28.67,10.68-28.3,13.41.2,1.47.85,6.17,1.45,10.46l1.08,7.79,8-6.27a239.7,239.7,0,0,0,18.51-17c5.8-5.93,11-10.31,11.59-9.74s-1.89,3.7-5.47,6.94a89.37,89.37,0,0,0-9.46,9.88c-1.62,2.19-7,7.42-12,11.61-8,6.8-9,8.17-8.91,12.82.24,12.17,4.49,11.1,21.47-5.38,2.88-2.8,11.43-10.44,19-17s15-13.28,16.52-15,3.8-3.07,5.08-3c2.33.06-1.93,4.25-22.33,22-5.57,4.84-13.07,11.5-16.66,14.8s-10.08,8.59-14.44,11.75c-8.4,6.1-7.33,9,1.49,4,2.54-1.45,6.17-3.48,8.06-4.52s3.44-2.42,3.44-3.06,2.67-2.95,5.93-5.1,10.8-8.18,16.76-13.38,11.24-9.05,11.72-8.57c1.1,1.1-14.2,15.18-16.59,15.27a4.23,4.23,0,0,0-2.89,1.93c-.64,1-4.38,4.45-8.32,7.61s-8.83,7.3-10.87,9.2a37.78,37.78,0,0,1-8.78,5.69c-3.22,1.43-4.24,2.43-2.81,2.76,8.68,2,6.75,30.84-2.06,30.84-2.17,0-6.92,4-10.9,9.06-2.49,3.2-1.17,3.22,3.87.06ZM250.5,604.9c0-.42,1.31-4.65,2.91-9.39,3-9,9-45,9.38-56.88.13-3.8,1-7.68,1.94-8.62a6,6,0,0,0,1.71-3.56c0-6.71,15.79-30.08,18.5-27.38.52.53-.73,2.39-2.78,4.15-9.14,7.82-14,22.64-19.44,59.71-3.93,26.64-12.22,55.1-12.22,42Zm-10.44-19.5c3-4.77,5.94-8.68,6.63-8.69s.11,1.72-1.28,3.84-3.81,6-5.38,8.7-3.41,4.83-4.1,4.83,1.18-3.9,4.13-8.68Zm-40.27-20c0-1.71,11.44-11.88,13.37-11.88.69,0,2.69-1.53,4.45-3.4,7.75-8.24,24.27-23.1,24.94-22.42C244,529.15,231.29,542,217.48,553,198.65,567.94,199.79,567.14,199.79,565.39Zm43.64-26c.27-1.71,18.59-18.31,19.36-17.54.38.38-3.33,4.73-8.25,9.66C246.29,539.79,243,542.11,243.43,539.38Zm141.7,105.49c4-2.16,3.86-4.18-.3-3.39-10.9,2.09-12.26-10.43-1.74-16.05,3.18-1.7,6.06-3.26,6.4-3.46,2.84-1.71-2.19-1.49-6.42.28-9.51,4-47.22,1.94-65.91-3.55-16.65-4.89-44-7.14-49.73-4.08-4.8,2.58,3.8,4.64,10,2.4,6-2.17,11.91-.5,13.94,4,2.94,6.45-6.19,11.12-13.91,7.11-3.69-1.91-4.45-1.86-7.92.57a31.87,31.87,0,0,1-6,3.39c-1.2.39,6.62,1.05,17.38,1.47,21.61.83,21.64.83,18.24-2.57-4.12-4.13.35-12.24,6.74-12.24,11.49,0,18.15,13.56,8.21,16.71-5.48,1.74-.89,3.39,19.71,7.08,11.15,2,21.91,3.93,23.9,4.3,5.91,1.11,24.13-.18,27.4-1.93Zm-33.2-1.94c-7.35-3.71-5-11.82,3.88-13.49,7.72-1.45,12.06,1.18,12.06,7.3C367.87,644.27,360.37,647.18,351.93,642.93Zm11.19-4.11c2.54-2.54.49-5.62-3.73-5.6-5.16,0-8.07,2.08-7,4.91,1,2.68,8.26,3.15,10.72.69Zm-33.7.25c-5.47-2.22-6.93-5.22-4.76-9.78,3.83-8,18.58-5.09,18.58,3.71C343.24,638.89,336.4,641.9,329.42,639.07Zm9.47-6.06c0-3.8-7-6.49-9.72-3.75s-1,6.54,3,7.18c4.65.76,6.76-.31,6.76-3.43Zm142.78,8.19a76.21,76.21,0,0,0,10.45-15.58c6.64-13.69,7.05-17.89.52-5.38-5.05,9.7-10.3,16.68-10.3,13.71,0-.58,2.23-5.39,4.94-10.68,8.41-16.37,10.9-22.57,13.8-34.42,4.46-18.13,6.19-29.7,5.22-34.84l-.89-4.76-7.55,2.9c-4.15,1.6-11.31,4.84-15.9,7.2s-10,4.3-12,4.3c-2.63,0-3.6.78-3.6,2.9,0,4.48,7,3.7,14.2-1.57,3.35-2.46,6.81-4.23,7.69-3.93,2,.67-13.16,10.87-18,12.07-3.45.87-8.28-2.18-8.28-5.23,0-.74-1.31-1.34-2.9-1.34-4,0-3.64,1.47,1.08,5.24l4,3.19-4-.76c-4.75-.91-4.82-.51-1.08,6.83,6.67,13.07,16.23,9.64,28.26-10.17,5.81-9.56,10.38-12.76,8.8-6.16-.53,2.2-2.1,10.52-3.48,18.49-3,17.15-9.48,32.17-15.87,36.72-7.79,5.55-10.29,3.78-3.15-2.22S487.57,597,483.07,597a2.09,2.09,0,0,0-2.18,2c0,5.53-13.22,15.8-16.34,12.69-1.06-1.06-.24-2,2.7-3.09,4.48-1.66,15-12.54,15.07-15.53,0-1,1.65-2.85,3.64-4.15,3-2,3.63-3.55,3.63-8.85,0-7.87-.72-7.67-8.93,2.46-8.46,10.43-17,11.53-22.43,2.9-9-14.27-14.4-17.75-22.28-14.48-5.29,2.19-5.35,3.41-.53,10.37,2.08,3,3.89,7.28,4,9.5.44,7.51,17.9,40.27,24.91,46.73,3.52,3.24,6.4,6.21,6.4,6.59,0,1.7-3,.39-7.19-3.11s-7.24-4-5.18-.63c1.41,2.28,11.18,7.19,14.44,7.27,1.54,0,5.52-2.86,8.85-6.43Zm-15.08-61.46c-1.38-.88-.28-1.48,3.62-2a78.41,78.41,0,0,0,9.23-1.76c3-.87,2.86-.54-1.12,2-5.07,3.25-8.53,3.76-11.73,1.74ZM436,622.64c-2.15-14.68-3.87-19.5-6.17-17.2a7,7,0,0,1-4.29,1.68c-3.41,0-3.41,0,2.27,12.09,2.69,5.71,5.79,12.93,6.89,16.06,2.87,8.14,3.47,2.24,1.3-12.63Zm-46.66,9.48c.49-5.09-.54-5.61-6.06-3.09-6.92,3.15-6.07,8.94,1.2,8.23C388.28,636.88,388.94,636.18,389.34,632.12Zm-213.1,1.62c2.36-.63,3.25-1.94,3.22-4.69,0-3.48-.22-3.59-2-1.28-3.06,4-6.92,3.34-5.29-.93,1.44-3.78.49-9.58-1.56-9.58-1.45,0-1.69,9.2-.37,14.13,1,3.55,1.17,3.64,6,2.35ZM312,632.32c5.62-2.15.78-9.26-6.31-9.26-6.5,0-3.79,7.2,3.77,10.05a11.38,11.38,0,0,0,2.54-.79Zm-46.2-5.8c2-1.29,3.57-3,3.57-3.73,0-2.56-6.17-.49-8.34,2.81C258.4,629.53,260.54,629.94,265.77,626.52Zm-143.62,0c3.68-1.41,2.64-3.32-1.64-3-4.76.33-6.34-4-2.48-6.87a3.71,3.71,0,0,0,1.62-4.24c-1.28-3.33-3.41-3-4.38.75-.7,2.65-1.17,2.85-3.07,1.28-4.69-3.9-1.67-10.17,4.93-10.25,3.49,0,3.53-.13.79-1.69a13.89,13.89,0,0,1-3.78-3c-4.66-7-7.72,14.26-3.1,21.57,3.85,6.1,6.28,7.29,11.11,5.44Zm165-1.53c1.47-1.46-1.95-4.84-4.91-4.84s-4.84,2.23-3.53,4.35c1,1.62,7,2,8.44.49ZM177.42,612c-1.07-4.25-4.32-4.39-10.76-.47-5.9,3.6-5.37,4.72,1.35,2.78,5.47-1.58,8.38.56,8.81,6.47.14,1.87.45,1.43.84-1.18A23.57,23.57,0,0,0,177.42,612Zm-36.77,5.73c12.67-5.34,12.69-5.38,11.73-16.9-.77-9.22-1-9.84-3.87-9A92.46,92.46,0,0,1,137,593.64c-9.48,1-12.52,4.74-12.52,15.51,0,12.88,2.69,14.3,16.21,8.6Zm240.82.72c8.44-2.4,8.86-3.08,8.86-14.35V594L384,595l-6.35,1,1-4.91A80.27,80.27,0,0,0,380,579.59l.24-6.52-8.7.4c-17.86.84-25.47,5.08-47.23,26.28-13.94,13.59-11.86,16.09,15.08,18.12,3.83.29,7.36.92,7.85,1.41,1.56,1.56,28.12.94,34.28-.81Zm-32.39-11.38c0-1.21,2.4-5.21,5.39-8.89s8-10,11.2-14.1,6.29-7.41,6.92-7.41c1.64,0-2.4,7.18-6.93,12.32-2.1,2.39-5.24,6.21-7,8.49-7.05,9.31-9.56,11.81-9.61,9.59Zm-36.27-.79c11.21-11.4,19.15-18.67,22.88-21a36.91,36.91,0,0,0,6.8-5.66l2.88-3.24-5.69,1.07c-16.47,3.09-51.52,31.74-40.27,32.91,3,.32,6.08.68,6.88.81s3.73-2.09,6.52-4.92Zm-146.51,0c.3-.27-.55-2.18-1.89-4.23s-2.06-4.95-1.55-6.57c.74-2.33-1.89-7.16-3.9-7.18-.26,0-.25,4.59,0,10.2.47,10,2.46,12.13,7.32,7.78Zm136.58-9.53c11.53-9.42,14-12.1,12.2-13.11-1.64-.92-3.2-.28-5.53,2.28-1.79,2-6.85,4.69-11.23,6.06-6.88,2.15-21.73,11.64-24,15.37C269.52,615,289.59,607.6,302.88,596.73Zm114.36,7.94c2.31-6.08-3.52-20.73-8.25-20.73-1.89,0-3.44-.51-3.44-1.12s-2-3.53-4.43-6.49L396.7,571l-4.92,3.22c-7,4.59-13.7,18.44-8.92,18.44,3,0,6.45-4.6,7-9.31.26-2.32,1.31-4.5,2.33-4.84,1.38-.45,1.64.83,1,5-1.63,11.1,3.71,25.67,6.08,16.59,1.25-4.78,6.08-3.82,8.38,1.66,3.43,8.19,7.15,9.35,9.57,3Zm-244.85-9.39a29.74,29.74,0,0,1-1.58-7.94c0-3.67-.17-3.8-3.24-2.62-2.8,1.07-1.5,8.95,2.34,14.14C173.42,603.6,174.66,601.81,172.39,595.28Zm258.36,3.87a14.67,14.67,0,0,1,2.89-3.83c2.56-1.86,2.14-9.8-.56-10.66-1.41-.44-2.92-2.58-3.36-4.75-1.28-6.23-4.86-10.45-6.11-7.2-1.61,4.15.42,9.82,3.15,8.78,1.95-.75,2.24,0,1.72,4.39-.63,5.39.94,7.4,2.15,2.77.51-2,.7-1.84.83.62.09,1.78-1.4,4.39-3.46,6-4.11,3.24-4.92,8-1.24,7.25A7.19,7.19,0,0,0,430.75,599.15Zm-150-3.63c5.32-3.85,6-5,6-10.14,0-6.2,0-6.24-3.5-4.91-2.57,1-3.16,4.92-.75,4.92.86,0,1.34,1.46,1.09,3.26-.39,2.75-1.3,3.23-5.9,3.09-5.05-.15-5.43.13-5.43,4,0,5.21,1,5.19,8.48-.21Zm-156.28-2.66c0-1.61-6.71-4.63-7.82-3.51-1.58,1.57-.91,3.06,1.66,3.73,4.29,1.12,6.16,1,6.16-.22Zm21.44-15.2c.48-12.63-.1-13.35-9.18-11.42-5,1-5.68,1.69-5.33,4.75.22,1.94.43,6.91.47,11,.08,8.18,1.93,9.59,10,7.64C145.26,588.86,145.48,588.2,145.88,577.66Zm12.43,6.88,6.7-3.75v-9.93c0-11.29-.5-12-6.52-9.36l-4.34,1.92,4.06.11c5.5.16,5.43,11.45-.08,13.87-1.79.78-3.26,2.21-3.26,3.17a3.69,3.69,0,0,1-1.64,2.76c-1.19.73-1.38-1.15-.71-6.8.51-4.29.37-8.66-.32-9.71-1.34-2.06-3.58,18.11-2.25,20.26,1,1.63.78,1.7,8.36-2.54Zm142.18-.28c6.62-3.61,11.92-16.36,6.76-16.24-2.93.07-5,2.77-3.57,4.58,1,1.21,1.08,3.16.28,5.28-1.65,4.35-7.36,3.82-8.48-.78-1.21-5-4.49-1.83-5.43,5.18-1,7.3.27,7.54,10.44,2Zm117.39-14.45c-.72-4.85-1.53-6.16-3.78-6.16-3.87,0-13.29,4-12.62,5.41,5.14,10.62,7.7,12.29,6.14,4-.61-3.25-.39-5.07.61-5.07s2,3.25,2.52,7.22,1.52,6.86,2.22,6.43,2.08,1,3.07,3.26c2.27,5,3.43-4.46,1.84-15.1Zm-315.64,8c5.74-6.38,5.73-7.38,0-6.29s-7.73-3.36-3.54-7.55c2.42-2.42,5.51-2.17,5.51.44a2.18,2.18,0,0,0,2.17,2.17c1.2,0,2.17-1.27,2.17-2.81s.66-3.22,1.45-3.71a3.24,3.24,0,0,0,1.45-2.44c0-1-.79-.88-2.15.25-3.12,2.59-6.54.7-6.54-3.61,0-5.11,4.1-6.41,7.4-2.34l2.59,3.21,2-4.06c6.69-13.41,10.39-28.23,7.57-30.29-3.18-2.33-9.45-2.7-9.45-.57,0,.8,1.89,1.45,4.19,1.45,2.5,0,4.55.93,5.08,2.31,1.48,3.85-.65,5.31-6.58,4.51-4.53-.61-5.92-.21-7.11,2-.81,1.52-1,2.84-.34,2.93s1.79.32,2.59.5,2.3.44,3.35.56c1.24.15,1.74,1.85,1.45,4.92-.52,5.34-4.93,7.31-7.75,3.44-2.08-2.84-11.27,13.8-14.61,26.45-3,11.21,2.28,16.11,9.12,8.52Zm-7.49.38c-1.07-1.72.29-4.37,2.25-4.37,1.76,0,1.77,3.93,0,5a1.67,1.67,0,0,1-2.26-.64Zm34,.71c0-1.2-.61-2.18-1.36-2.18-1.83,0-3.14,2.27-2,3.42C127.08,581.74,128.79,581.11,128.79,578.87Zm191-3c6.85-2,7.51-2.6,7.51-6.52,0-2.36.05-4.76.11-5.34s-.69-1.31-1.65-1.64c-1.23-.41-1.48.54-.84,3.12a5.91,5.91,0,0,1-1.42,6.06c-3.13,3.13-7,2.22-7.53-1.8-.84-5.89-4.61-3.81-4.61,2.56,0,3.18.21,5.79.46,5.79s3.84-1,8-2.23Zm-194.53-3.23c-1.31-1.31-5.35,1.09-4.4,2.62.65,1.05,1.59,1,3-.19C125,574.16,125.65,573.07,125.26,572.68ZM389.61,568c0-8.46-4.89-6.19-5.63,2.62-.38,4.48-.2,4.71,2.61,3.21C388.58,572.79,389.61,570.82,389.61,568ZM159.22,570.9c0-1.6-.65-2.9-1.45-2.9s-1.45,1.3-1.45,2.9.65,2.89,1.45,2.89S159.22,572.49,159.22,570.9Zm383.62.61c5-1,3.87-3-2.26-4a15.26,15.26,0,0,1-12.75-12.24c-1.21-6,.29-6,2.83.13,3.94,9.43,10.66,11.76,25.4,8.81,5.29-1.05,6.07-3.44,1.12-3.44-7,0-23.66-14.18-25-21.26-1.11-5.88-3.39-6.08-10.46-.92-8,5.84-9.08,7.65-8.15,13.42,2.83,17.48,11.38,23.19,29.26,19.52Zm-183.3-4.39,11.23-1v-5.58c0-5.5-.09-5.59-5.43-5.57-9,0-11.6,1.21-10.87,5,.35,1.84,0,3.73-.77,4.21s-1.82-1.15-2.31-3.62c-.81-4-1.31-4.4-4.89-3.57-2.19.51-6.37,1.31-9.28,1.79-4.8.79-5.36,1.37-6,6.13-.91,7.28-.66,7.43,8.72,5.18a166,166,0,0,1,19.56-3Zm-23.08-1.44a3.11,3.11,0,0,1,1.13-3.6c3.06-1.94,8.55-1.58,8.55.56C346.14,567.51,338.13,570,336.46,565.68ZM359.23,563c-2.32-2.8-.7-5.13,3.57-5.13,1.9,0,3.87.68,4.39,1.51,1.13,1.83-1.86,5.73-4.39,5.73A5.76,5.76,0,0,1,359.23,563ZM433,567.36c1.28-1.15,8.1-2.81,15.18-3.69,14.8-1.84,22.59-4.62,22.59-8.06,0-1.32,2.93-5.37,6.52-9a209.51,209.51,0,0,0,14.05-16.52c4.14-5.45,8.09-9.91,8.79-9.91,1.78,0-10.38,17-12.84,18a3.16,3.16,0,0,0-2,2.56c0,1-1.75,3.59-3.88,5.82s-3.56,4.37-3.17,4.76,2.8-1.72,5.34-4.69,7.72-9,11.5-13.39,9.05-10.58,11.72-13.76c7.62-9.09,2.18.91-7,12.93-4,5.25-6.71,9.54-6,9.54,3.1,0,13.07-12.59,30.16-38.07,10-15,18.87-27.59,19.65-28.07,1.78-1.1-1.2,4.7-5.32,10.35-1.75,2.39-6.38,9.56-10.3,15.94s-10.87,17-15.45,23.55c-5,7.25-7.52,12-6.29,12,3.18,0,16.74-19.26,45.43-64.48,17-26.87,32-47.3,36.2-49.38C593.15,421,598,415.85,602.44,408c2.29-4,5.54-8.59,7.24-10.11s3.07-3.88,3.07-5.26c0-3.46,2.42-5.15,13.16-9.2,7.75-2.92,9.31-4.07,9.37-6.9.05-2.64.78-3.33,3.26-3.06,2.27.24,3.19-.44,3.19-2.37a3.92,3.92,0,0,1,2.9-3.47c3.42-.9,3.8-3.27.72-4.45-1.19-.46-2.17-.2-2.17.57,0,1.95-1.87,1.75-5-.53-2.53-1.85-2.53-2.09-.08-5.84,1.41-2.15,2.27-4.21,1.9-4.57s-2.2,2.07-4.08,5.41c-8.63,15.37-3.18.24,8.55-23.7,17.36-35.45,17.91-31.33.75,5.55-7,15-3.12,9.42,6.12-8.84,8.93-17.63,13.47-23.88,17.45-24,2-.06,2.63-1.94,4.72-13.7,2-11.15,1.23-11.51-3.43-1.66-3.62,7.66-6.63,10.41-6.63,6.08,0-2.28,13.8-27.93,17-31.61,1.17-1.35,1.7-3.14,1.17-4-2.9-4.69-14.86,3-13.13,8.48.7,2.23-8.7,24.56-11.54,27.4-4.05,4-4.45-3.78-.64-12.29,2.34-5.2,4.26-10.21,4.28-11.13s1.31-3.31,2.86-5.3c3.35-4.28,3.67-6,.91-4.94-1.09.42-4.43,4.31-7.42,8.65s-6,7.88-6.62,7.88-4.49,3.35-8.52,7.44-7.32,6.57-7.32,5.51c0-3.4,7.48-13.37,18.71-24.9,10.63-10.94,11.52-15,1.87-8.64-2.15,1.43-5.23,3.26-6.82,4.08-3,1.58-25,28.05-36.58,44-3.73,5.18-7.19,9.74-7.69,10.14a59,59,0,0,0-4.75,7.36c-8.47,14.6-36.29,36.78-60.82,48.49-9.91,4.74-12.6,6.72-12.6,9.27,0,15-26.82,41.19-37.31,36.41a21.84,21.84,0,0,0-7.31-1.6,18.55,18.55,0,0,1-7.54-2.12,17.49,17.49,0,0,0-6.94-2.12c-1.83,0-5.2-1.45-7.51-3.15-4.51-3.34-9.62-2.76-8.21.93s-.55,6.4-6.85,10.07c-5.84,3.4-38.95,15.28-42.58,15.28-4.39,0-1.14-2.52,6.52-5.06,28.31-9.37,49.32-27.3,35-29.87A56.43,56.43,0,0,1,434,400.1c-3.72-1.51-4.63-1.24-9.08,2.67-7.19,6.31-11.58,8.18-23.74,10.14-25,4-38.93,9.88-48.4,20.37-10.56,11.68-5,13.62,8.45,2.94,10.45-8.31,18.31-11.68,40.61-17.39,8.89-2.28,20.62-6.16,26.06-8.63,11.24-5.09,10.95-5,10.95-3,0,3-22,11.53-38.68,15-22.89,4.82-48.65,19.16-39.2,21.83,6.41,1.81,11.23,4,11.23,5.09,0,.62,1.89,3.14,4.19,5.61l4.19,4.49,6.32-2.13c3.47-1.17,16.74-4.77,29.49-8s24.65-6.24,26.45-6.72,3.26-.22,3.26.59-2.12,1.81-4.71,2.25-15.14,3.67-27.89,7.19-25,6.83-27.17,7.36c-5.91,1.43-5.05,3.32,6.64,14.58,5.84,5.63,11.06,11.22,11.6,12.42s2.36,4.45,4.05,7.24c5.83,9.63,8.82,21.23,14.28,55.4,3.38,21.17,4.4,23,10.06,17.86Zm37.77-27.83c0-.51,2.81-3.94,6.25-7.62a77.63,77.63,0,0,0,7.87-9.56c.88-1.58,2-2.47,2.49-2s-2.39,4.72-6.4,9.41-7.29,9-7.3,9.6a1.33,1.33,0,0,1-1.46,1.09c-.8,0-1.45-.42-1.45-.94Zm20.62-27c1.16-1.79,4.9-7.69,8.3-13.1s6.46-9.6,6.77-9.29c.61.61-10.06,20.53-12.71,23.72S489.11,516.06,491.37,512.57ZM512,511.49c1.6-2.89,11-16.28,12.75-18.11,1.22-1.3.34.44-5.8,11.5a27.69,27.69,0,0,1-5,6c-2,1.74-2.74,2-2,.63Zm2.19-12.88c0-.71,1.34-2.83,3-4.71l3-3.42-2.28,4.71C515.63,499.82,514.22,501.14,514.22,498.61Zm31.88-26.83c0-1.23,8.42-13.75,11-16.43a76.13,76.13,0,0,0,6.21-9.42,101.85,101.85,0,0,1,7.5-11.24c7.26-8.57-8.08,16.38-18.71,30.43C546.18,473,546.1,473.12,546.1,471.78Zm-26.21-3c2.51-4.91,4.43-7.32,4.45-5.59,0,.91-1.32,3.19-3,5.07C519,470.91,518.72,471,519.89,468.74Zm-68-4.36c0-1.65,6.59-13.67,7.52-13.71.54,0-.43,3.21-2.18,7.17C454.59,463.91,451.91,467.19,451.91,464.38Zm74-4.33c0-.8,1.26-3.08,2.82-5.07s2.85-2.88,2.87-2-1.26,3.19-2.82,5.07S525.9,460.85,525.89,460.05Zm-102.2-2.12c-.42-.68,2.22-2.25,5.87-3.49,4.38-1.49,6.44-1.7,6.07-.61-.72,2.16-11,5.67-11.94,4.1Zm52.87-5.88c.85-1.58,2.15-2.87,2.89-2.87,2,0,.11,4-2.33,4.93C475.44,454.75,475.33,454.35,476.56,452.05Zm20.09.75c2.1-4.29,5.88-8.91,5.92-7.24,0,.8-1.62,3.4-3.65,5.8s-3.05,3-2.27,1.44Zm56.69-3.56c0-1.86,4.15-6.54,5-5.66.29.29-.72,2.07-2.24,3.95s-2.78,2.65-2.78,1.71Zm-16.72-6.67c6.58-11.36,19.27-25.3,13.92-15.31-.9,1.7-2.18,3.08-2.84,3.08s-3.59,3.89-6.53,8.65C534.67,449.53,530.83,452.55,536.62,442.57ZM462.11,447c-.09-2.62,13-18.19,17.77-21.07,6.79-4.15,8.33-3.43,2.46,1.15-6.34,4.94-9.63,8.23-15.53,15.57-2.56,3.19-4.68,5.15-4.7,4.35Zm42-6.3c0-.67,1.36-2.45,3-3.95,3-2.73,3-2.73,1.21,1.22-1.71,3.75-4.23,5.38-4.23,2.73Zm8-9.09c2.32-3.86,10.09-12.81,11.16-12.84,1.41,0-8.94,13.57-10.87,14.29C511.5,433.4,511.39,432.83,512.11,431.62Zm55.72-12.86c5.7-6.81,11.53-12.11,7.88-7.17-7.15,9.68-11.24,14.41-12.48,14.41C562.42,426,564.49,422.74,567.83,418.76ZM565.3,402.6c-1-1-1.82-3.59-1.82-5.75s-.64-4.15-1.42-4.42c-2.2-.74-4.25-13.79-2.45-15.59,2.84-2.84.08-2.94-7.08-.24-11.53,4.34-17.67,5.37-15.36,2.59,1-1.25,4-2.72,6.49-3.26,6.6-1.43,24.07-11.08,24.93-13.78.39-1.26,5-5.82,10.3-10.15A205.12,205.12,0,0,0,606,326c3-3.57,5-5.5,4.43-4.31-2,3.95-18.24,22.31-27.58,31.17-7.6,7.2-9.18,9.52-9.18,13.4,0,6.07.81,5.93,8.27-1.4,3.42-3.35,6.22-5.27,6.22-4.27,0,2.22-8.35,10.06-11.93,11.2-1.78.56-2.56,2.29-2.56,5.7,0,7.17,1.73,7.11,7.32-.22,2.75-3.6,6-7.66,7.17-9,7.87-9,13.88-17.31,17.65-24.49A114.59,114.59,0,0,1,614,330.37c2.13-2.79,6.14-8.48,8.91-12.65s5.55-7.58,6.18-7.6c1.26-.05-8,15-12,19.52-1.41,1.59-5.94,8.77-10.07,15.94-9.69,16.87-12.79,21.13-24,33-6.38,6.77-9.58,11.43-10.23,14.9-1.31,6.95-5.07,11.51-7.49,9.09Zm5.41-21c0-10.15-.89-13.52-3.67-13.52-3.1,0-3.85,2.56-2.24,7.61a79.71,79.71,0,0,1,2.39,11.83C568.4,397.17,570.68,393.34,570.71,381.56Zm31.54,11.73c-5-5,2.75-27.22,16.08-46.26,7.36-10.53,8.27-11.12,3.81-2.48-2.18,4.22-3.62,8-3.2,8.43s3.12-3.68,6-9.11,4.58-10.09,3.78-10.36.1-3.2,2-6.52,4.71-8.33,6.21-11.11c3.76-7,6.8-11.6,7.67-11.6,2.35,0,0,9.19-4.2,16.67-16.27,28.72-29,52.79-30,56.53-.5,2-1.58,4-2.41,4.55-2.39,1.48,0-6.44,5.05-16.52,4.77-9.58,4.87-13.95.13-5.86a66.83,66.83,0,0,0-9,26.27c-.49,4.65-1.38,8-2,7.37Zm-12.68-36.67a3.32,3.32,0,0,1,1.54-2.41c5.35-3.3,29.79-41.23,27.49-42.65-1-.63-.62-1.83,1.17-3.45,9.4-8.5-8.89,25.45-23.89,44.35-3.27,4.12-6.31,6.13-6.31,4.16ZM397.26,566.33l3.11-1.66-3.31-1.23c-5-1.83-3.71-7.61,1.79-8.23,3.8-.44,4.11-.14,3.47,3.26-.4,2-.16,3.73.53,3.73s1.25-2.61,1.25-5.79c0-6.17-.78-6.7-6.17-4.25-4.77,2.17-6.59,5.68-5.78,11.15.77,5.28.82,5.31,5.11,3Zm-16.35-2a2.18,2.18,0,0,0-2.17-2.18c-1.21,0-2.17-1.29-2.17-2.9s-.66-2.89-1.45-2.89-1.45,2.28-1.45,5.07c0,4.44.45,5.07,3.62,5.07C379.54,566.55,380.91,565.73,380.91,564.38Zm-238.82-3.44c5.36-2.05,6.92-12,3.56-22.63-1.3-4.13-2.37-8.58-2.37-9.87,0-3-4.37-5.36-9.89-5.36-4.65,0-6.09,2.48-11.85,20.37a75.13,75.13,0,0,1-5.64,13c-1.67,2.74-3,5.57-3,6.29C112.85,564.44,136.9,562.92,142.09,560.94Zm14-3.23c5.59-1.94,6.42-6.17.94-4.8-3.15.8-3.62.44-3.62-2.78,0-2-.65-4.1-1.45-4.59s-1.45.83-1.47,3.17a34.94,34.94,0,0,1-.89,7.33C148.62,559.73,149.61,560,156.1,557.71Zm262.34.22c1.86-1,2.39-2.59,1.92-5.79-.88-5.94-13.46-7-13.25-1.17.06,1.8.44,2.45.84,1.45,1.27-3.13,7.74-2.22,7.74,1.09,0,2.71-2.1,3.63-6.88,3a1.47,1.47,0,0,0-1.82,1.28C407,559.68,415,559.78,418.44,557.93Zm152.29-2.25c1.44-1.73,1.44-2.61,0-4.37-1.61-1.94-5.78,2.38-5.78,6,0,1.47,4.21.3,5.8-1.62ZM391.5,552.07c5-4.7,15-8.7,21.65-8.7h4.2l-1-8.34c-3.65-31.37-16.2-55.57-35.5-68.46-5.53-3.69-8.66-7.65-8.66-10.94,0-7.73-44.29-11.88-73.17-6.86-18.72,3.25-45,5.26-47.87,3.66-2.21-1.24-1.31-1.74,5.21-2.92,7.62-1.39,7.69-1.44,2.08-1.62-8.47-.28-16.66-1.82-16.66-3.13,0-.63,4.73-.82,10.51-.41s20.89-.27,33.59-1.51c14.49-1.42,23.7-1.75,24.73-.9,2,1.68,30.92.09,32.07-1.77,1.28-2.06.59-2.31-15.21-5.37-19.11-3.7-33.58-5.21-30.67-3.19,3.68,2.55.71,3.21-4.56,1-13.34-5.57-30.6-2.89-32.68,5.08-.4,1.53-1.63,2.79-2.73,2.79-4.54,0-.71-8.08,5-10.49,6.78-2.88-15.94-4.34-24.7-1.59-17.36,5.45-16.85,19,.81,21.56,9.87,1.44,6.63,3.44-7.31,4.51-12.79,1-17.8-.84-26-9.47l-3.58-3.8,1,4.35c4.61,20.53,56.59,33.64,76.14,19.21,9.81-7.25,58.44-2.95,83.38,7.37,11.27,4.67,26.72,18,28.71,24.86a42.37,42.37,0,0,0,4.7,9c4.49,6.63,3.76,10.44-1.53,7.94-2.84-1.34-3.76-3.16-4.52-8.88-1.21-9.08-2.67-11.49-3.65-6-1.13,6.38-3.55,4.7-4.38-3-.76-7.16-3.44-9.93-4.75-4.92-1.18,4.53-3.94,3.52-3.94-1.45,0-4.35-5.38-11.53-8.63-11.53-2.45,0-1.8,2.4,3.54,13A170.79,170.79,0,0,1,384,544.42c1.93,13.78,1.45,13.29,7.48,7.65ZM333,456c2.13-2.13,27.22-2,29.36.11,1.14,1.15-2.92,1.58-14.7,1.55C335.53,457.62,331.75,457.19,333,456ZM556.8,552.34c-1.06-5.33,2.22-8.09,8.48-7.14a16.79,16.79,0,0,0,8.7-1.32,12.56,12.56,0,0,1,7.35-1.18,5,5,0,0,0,5.23-1.38c1.65-2,.62-2.14-9.52-1.36-8.76.67-12.67.32-17-1.49-7.1-3-6.71-3.08-6.71,1.82,0,5.05-3.15,8-7.17,6.72s-3.75-5.9.66-10.31c3.6-3.59,2.89-10.79-.83-8.49a1.53,1.53,0,0,0-.7,2c1.12,1.81-2.63,6-5.76,6.49-1.58.23-2.75.88-2.61,1.43.85,3.34,6.61,11.25,8.78,12a28.82,28.82,0,0,1,6,3.59c4.78,3.67,6,3.32,5.07-1.42ZM165.34,544c-.54-2.87-1.29-3.39-3.76-2.65-6.16,1.86-7,7-.91,5.37,2.13-.55,2.9,0,2.92,2s.33,2.21,1.23.8A9.08,9.08,0,0,0,165.34,544Zm-9.16-4.79c2.42-1.86,3.19-3.47,2.49-5.28s-1.43-2.17-2.59-1c-1.93,1.93-4.66-.34-6.19-5.17-.55-1.75-1.91-3.19-3-3.19-1.66,0-1.61,1.17.32,6.88,1.27,3.79,2.53,7.7,2.78,8.7.63,2.45,2.09,2.23,6.21-.94Zm424.41-3.88c12.49-8.75,15.92-36.45,6.81-55.07-4.77-9.74-4.44-9.79-12.32,2-3.59,5.35-9.86,13.68-13.93,18.51-11.68,13.84-13.82,21.87-7.89,29.58,5.12,6.67,20.84,9.55,27.33,5ZM377,524.34a8.21,8.21,0,0,0-4.51-5.54c-3-1.37-3.35-2-1.69-3,3.62-2.24-.53-4.88-5.21-3.32l-4,1.32,7.74,7.5c8.62,8.36,8.65,8.37,7.63,3Zm169.23-16.13c21-20.41,27.56-29.22,36.74-49.33,3.16-6.93,6.57-12.6,7.56-12.6s1.45-.95,1-2.21c-1.39-3.6-4.19-.15-11.29,13.93-9.69,19.22-17.7,29.91-37,49.32-16.78,16.92-19.65,20.11-18.08,20.08.73,0,10.21-8.65,21.06-19.19Zm-387,16.32c0-.8-1.34-1.45-3-1.45s-2.58.65-2.08,1.45a3.81,3.81,0,0,0,3,1.45C158.28,526,159.22,525.33,159.22,524.53Zm386.88-.61A14.63,14.63,0,0,1,547,521c1.29-3.36-2.72-2.86-4.89.61-1.59,2.54-1.45,2.9,1.1,2.9C544.79,524.53,546.1,524.26,546.1,523.92Zm58.81-9.16c-.85-.85-6.65,4.38-6.65,6,0,.76,1.63-.15,3.62-2S605.23,515.08,604.91,514.76ZM183.85,515c6.78-1.27,14.93-2.82,18.11-3.44,22-4.25,41.54-12.06,59-23.58,5.34-3.53,12.68-8,16.3-9.91,7-3.72,8-5.23,4.3-6.64-3.43-1.32-12.63,1.91-17.4,6.1a52.18,52.18,0,0,1-9.3,6.25c-2.79,1.39-8.09,4.3-11.78,6.47-13.91,8.19-45.49,14.91-63.92,13.61-14.29-1-15.15-.62-16.43,7.34l-1,6.11h4.89c2.69,0,10.44-1,17.21-2.31ZM609,504.29c2.87-3.42,2.88-3.49.11-1.53-4,2.84-12.2,12-12.26,13.8,0,1.34,4.88-3.63,12.15-12.27Zm-449.8,2.13c0-4.78-9.78-5.41-12.66-.81-1.62,2.6-1.28,2.86,4.37,3.37,3.36.3,6.6.67,7.2.81s1.09-1.38,1.09-3.37ZM361,503.88c-.87-1.62-5.9-1.31-7,.43-2,3.17,2.17,5.75,5,3.1C360.46,506.07,361.36,504.48,361,503.88Zm9.73,2.39c0-15-26.07-37.69-44.92-39.15-9.41-.73-6.06,1.37,4.71,3,6.6,1,8.52,2.55,5.44,4.45-.79.49,3.28,4.68,9.06,9.3a170.58,170.58,0,0,1,17,15.75C368.12,506.38,370.77,508.42,370.77,506.27Zm-17.44-5.59c1.92-2.3.89-5.13-1.86-5.13-2.09,0-5.53,5.11-4.28,6.36,1.52,1.53,4.32,1,6.14-1.23Zm188.84-4.27c7-10.23,28.55-42.85,36.27-54.84,8.3-12.88,9.47-17.76,1.56-6.52-10.5,14.95-34.74,51.63-37.59,56.88-.86,1.59-2.83,4.83-4.37,7.19C534.26,504.89,538.1,502.37,542.17,496.41Zm5.38,1.52c0-1,2.19-4.42,4.86-7.55,8.23-9.64,22.1-32.11,20.68-33.52-.39-.39-7,8.8-14.7,20.43s-14.59,21.51-15.32,22c-2.75,1.7-1.29,3.63,1.58,2.1,1.59-.86,2.9-2.39,2.9-3.42Zm-330-2.27c21.64-5.8,43.81-17.07,45.81-23.29.59-1.84.33-1.88-1.62-.27-3.12,2.58-26.57,1.5-37.27-1.71-57.86-17.37-20.64-71.71,43.32-63.25,11.79,1.56,17.1,1.56,30.43,0,19.8-2.35,33.68-.82,53.75,5.91l13.76,4.62,9.71-3.12a111.15,111.15,0,0,1,17-4c5.73-.68,7.81-1.67,9.76-4.65,7.38-11.28,18.79-15.08,31.09-10.34a127.94,127.94,0,0,0,14,4.42c3.39.78,7.47,2.72,9.06,4.31q2.89,2.89,8.7,2.89c3.2,0,7.09.8,8.65,1.77,6.35,4,24.13-5.74,26.83-14.64,1-3.29.81-3.4-4.1-2.49-8.23,1.55-28.05,1.16-43.71-.85C419.29,386.67,394,392.78,394,405.1c0,2.18-2.26,2.82-3.4,1-1.27-2.06,3.1-10.13,7-12.85,2.11-1.49,6.58-4.93,9.92-7.64A49.16,49.16,0,0,1,432,374.63c5.32-.75,6.88-1.57,6.88-3.6a37.06,37.06,0,0,1,2.1-8.57c2.65-7.51,1.16-8.42-5.91-3.62-8.38,5.69-26.36,14.42-34.78,16.9-7.47,2.19-23.71,11.93-23.71,14.22s-10.69,5.78-21.74,7.23c-46.19,6.07-49.76,5.57-130.41-18-43.28-12.67-48.64-14.62-54.62-19.87-7.58-6.66-7.54-8.11-.67,25.51,1.64,8,3.62,19.43,4.4,25.35,3.08,23.48,7.8,46.91,10.49,52.06a25,25,0,0,1,2.57,11.06,142.28,142.28,0,0,0,.9,16.31l1.16,10.69,8.92-.83a148.15,148.15,0,0,0,19.94-3.78Zm397.57-8.4c-1.24-1.24-6.68,4.73-6.68,7.33,0,.89,1.76-.14,3.91-2.29S615.71,487.88,615.08,487.26Zm-274,5.39c.49-.8,2.3-1.45,4-1.45,2.83,0,2.91-.21.88-2.25-2.62-2.62-10-.26-10,3.21,0,2.26,3.76,2.62,5.08.49ZM607,487.86c0-.8-1.3-.27-2.89,1.17s-2.9,3.27-2.9,4.07,1.3.27,2.9-1.17S607,488.65,607,487.86ZM180.66,484c-.24-4-.85-7.25-1.36-7.25s-1.37-2.44-1.93-5.43a50.47,50.47,0,0,0-3-9.78c-1.09-2.39-2.71-9.89-3.61-16.67-2.06-15.64-6-37.43-12.42-68.1-1.25-6-3.37-17.15-4.72-24.83-2.17-12.34-3-14.47-7.16-18.35-9.57-8.94-11-23.79-1.75-18,3.84,2.4,4.2,2.27,3.32-1.11-.42-1.6-1.59-2.9-2.61-2.9a3.54,3.54,0,0,1-2.76-2.36c-.94-2.45-8.09,3.54-8.09,6.78a1.42,1.42,0,0,1-1.45,1.37c-.8,0-1.45-.94-1.45-2.08,0-2.94-2.18-3.95-6.29-2.92-6,1.5-3.34,6.21,3.76,6.74,6.83.51,8.06,2.92,12.05,23.48,1.25,6.45,2.66,12.71,3.14,13.91a27.9,27.9,0,0,1,1.29,5.79c.54,4.71,14.38,62.3,22.29,92.74,8.65,33.3,13.68,44.75,12.73,29Zm151.43.52c1.54-1.54-.39-3.35-2.65-2.48-1.17.45-1.76,1.4-1.32,2.11a2.39,2.39,0,0,0,4,.37Zm-8.41-3.42c.5-1.59,1.85-2.9,3-2.9s2.08-.65,2.08-1.45c0-2.25-2.16-1.72-6.34,1.57-2.11,1.66-3.46,3.61-3,4.34,1.37,2.22,3.3,1.51,4.28-1.56Zm293.42-2.95c0-2.49-2.75-1.48-4.41,1.61-1.47,2.75-1.35,2.87,1.4,1.4,1.65-.89,3-2.24,3-3ZM319,476.7c1.37-1.61,2.49-3.56,2.49-4.35,0-2.22-5.22-1.69-7.24.74a6,6,0,0,1-3.8,2.17c-2.87,0-2.46,2.57.54,3.35C315.66,479.83,316.5,479.63,319,476.7Zm-10.18-3.45c3.69-2.81,3.34-3-5.44-3.51-10-.55-13,1-6.37,3.4s8.79,2.4,11.81.11Zm-6.52-7.72a32.2,32.2,0,0,0-8,0c-2.2.33-.4.61,4,.61S304.5,465.86,302.31,465.53Zm296.39-8.74c.75-1,.8-1.81.1-1.8-1.39,0-7.78,8.87-7.78,10.78,0,.65,1.42-.69,3.15-3l4.53-6Zm19.85.36c2.17-2.31,2.7-3.62,1.45-3.62-2.22,0-7.25,4.17-7.25,6C612.75,461.79,615.1,460.82,618.55,457.15ZM223.23,447c-9.52-12.11,9.13-25.73,33.79-24.68,15.39.66,44.63,3.73,55.07,5.79,5.57,1.1,15.57,3.1,22.22,4.43L346.39,435l4.42-4.53c5.6-5.73,4.78-6.47-5.12-4.64-8.17,1.52-28,.21-40.45-2.67a62.44,62.44,0,0,0-10.9-1.46c-4.9,0-6.33-2-2.52-3.47s41.81-1.29,47.8.26c10.22,2.63,20.62,3.52,21.66,1.84.56-.91-.18-1.57-1.76-1.57s-7.25-1.54-12.77-3.43C331,409.94,312.24,407.84,299,410a127.49,127.49,0,0,1-26.48.82c-41.2-2.53-68.39,7.1-68.39,24.23,0,7.35,9.17,15.32,17.85,15.52l4.09.09L223.23,447Zm393.87-5.07c0-.8,1-1.45,2.17-1.45a2.15,2.15,0,0,0,2.17-2.13c0-1.17-.82-1.81-1.84-1.42-2.47.95-5.85,6.45-4,6.45A1.47,1.47,0,0,0,617.1,441.94Zm-17.87-12.32C608.79,415.3,620,397.13,620,396c0-3-18.31,21.89-24.47,33.34C587.6,444,589.5,444.18,599.23,429.62Zm20.48,1.88c1.94-1.94,2.39-9.85.56-9.85s-9.61,8.53-8.71,9.44c.43.43,1.6-.22,2.61-1.43a6.25,6.25,0,0,1,4.05-2.21c1.86,0,1.8.47-.4,2.89C615,433.42,616.75,434.46,619.71,431.5Zm-278.64-9.85c-1.6-.68-8.77-1.24-15.94-1.24-8.56,0-12.05.42-10.15,1.24,1.6.69,8.77,1.25,15.94,1.25C339.48,422.9,343,422.47,341.07,421.65Zm281.73-6.9c.34-.22,0-1.06-.87-1.88-1-1-2.77.19-5.58,3.87l-4.09,5.36,5-3.48C619.94,416.71,622.45,415,622.8,414.75Zm-130.32-.22c0-1.84-2.87-2.62-6.82-1.87-5.13,1-3.92,3.2,1.75,3.2,2.79,0,5.07-.6,5.07-1.33ZM422.36,401.2c3.31-3.66,2.2-4.4-4-2.68-5.24,1.45-12.79,7.32-12.79,9.94,0,2,13.8-3.94,16.81-7.26Zm79.19,6.74c6.5-2.72,11.74-9,14.84-17.75,1.35-3.81,3.63-9.55,5.07-12.73a62.94,62.94,0,0,0,3.66-10.87A55.32,55.32,0,0,1,529,355.72l2.88-5.79-6.68,6.46c-3.67,3.55-6.67,7.2-6.67,8.1s-1.25,2.78-2.77,4.15c-3.19,2.89-4.62,6.26-8.82,20.79-2.21,7.67-4.41,11.89-8.09,15.58-5.54,5.54-5,6.13,2.66,2.93ZM309.91,395.57c0-.8-1.34-1.45-3-1.45s-2.58.65-2.09,1.45a3.83,3.83,0,0,0,3,1.45C309,397,309.91,396.37,309.91,395.57Zm22.95.18c1.45-.92,1.09-1.5-1.45-2.34L328,392.3l3.54-.67a5.08,5.08,0,0,1,5.23,1.63c2.18,3,6.65,3.1,5.51.14-1-2.61,3.13-3,4.7-.48.7,1.12,1.45.63,2.22-1.45,1.34-3.63,5.87-4.15,8.5-1,2.24,2.7,5,2.77,7.57.19a16.19,16.19,0,0,1,5.54-3.11c6-1.9,12.59-7.81,20.33-18.25,4.07-5.49,8-10,8.72-10,1.85,0,1.64,1.05-1,5.13-1.29,2-1.73,3.57-1,3.57,1.72,0,6.78-5.51,9-9.78.93-1.8,2.31-3.26,3.08-3.26,2.65,0,1.39,3.7-3.11,9.16-2.48,3-4.18,5.81-3.78,6.21,1.08,1.08,9.17-7.79,14.5-15.89,4.23-6.44,4.69-6.76,5.41-3.7s1,3.05,4-2c1.74-2.95,4.25-5.36,5.57-5.36,5.37,0-2.44-23.68-10.63-32.24-6.38-6.67-14.81-2.55-40.88,20-8.52,7.37-19.68,15.51-24.81,18.1L346.86,354l-28.25-1.62c-18.34-1.05-37.93-1.18-55.79-.39-30.1,1.35-24.49,2.07-60.86-7.86-4-1.08-9-2.33-11-2.76s-6.18-3.73-9.41-7.69c-3.08-3.8-8.32-9.69-11.65-13.09-4.46-4.57-6.82-8.74-9-15.94-6-19.75-11.64-21.26-7.87-2.13,2,10.1,2.79,11.94,5.2,11.94s2.53.38,1.08,2.12-1.19,2.92,1.09,6.16a28.57,28.57,0,0,1,3.87,8.7l1,4.67-7-3.75a48,48,0,0,1-11-8.24c-2.89-3.26-4-3.82-4-2.06,0,1.33,3.91,6.28,8.69,11s8.7,9.5,8.7,10.62c0,10.8,34.71,27.13,58.85,27.7,6.29.15,8.38.75,8.85,2.56.8,3,15,7.57,19.88,6.34,2.72-.69,4.38-.15,6.24,2,1.39,1.63,7.17,4.31,12.83,6,12.18,3.54,13.66,3.68,9.91.94-1.55-1.13-2.34-2.53-1.76-3.11s2-.23,3.24.77a5,5,0,0,0,4.44.95c1.24-.47,4.82.76,8,2.74s6.21,3.58,6.82,3.56,0-.72-1.45-1.54-2.17-2.14-1.68-2.93,2.3-.52,4.53.94,4.14,1.9,5.06,1c1.85-1.85,9.87,1.1,9.87,3.63,0,2.14,15.38,2.63,18.6.59Zm-15-3.08c-1.14-1.84,2.22-1.84,5.07,0,1.77,1.14,1.58,1.41-1,1.43C320.21,394.11,318.37,393.47,317.88,392.67Zm-81.2-16c-1.7-2.75.78-3.43,3.3-.91,2.26,2.26,2.26,2.45.05,2.45A4.28,4.28,0,0,1,236.68,376.64Zm142.78.18A3.28,3.28,0,0,1,381,374.5c.85-.52,2.14-2.51,2.86-4.43,1.34-3.52,4.3-4.82,4.3-1.89,0,2.22-5.71,10-7.35,10a1.36,1.36,0,0,1-1.35-1.36Zm-92,14.4a3.62,3.62,0,0,0-5.79,0c-.51.83.74,1.45,2.9,1.45S288,392.05,287.45,391.22ZM500.2,387.5c1.32-.51,3.1-3.63,4-6.93,5.56-21.29,23.84-37.5,48.3-42.83,16.86-3.67,45.8-33.22,45.8-46.77,0-1.57,1.92-8.31,4.27-15,5.48-15.5,8.77-32.95,8.77-46.41,0-5.85.65-11,1.45-11.52,4.14-2.56-.13,39.1-5.61,54.7-3.7,10.53-2.57,10.37,5.73-.83l6.64-8.95.28-23.09c.16-12.76.93-23.86,1.73-24.82,1-1.2.83-2-.53-2.5-2.19-.84-1.62-9.73.62-9.73.71,0,1.28-1.26,1.28-2.81s.7-3.24,1.55-3.77a2.53,2.53,0,0,0,.76-3c-1.37-3.57.79-10.94,3-10.1s2.58-1.7,1.1-5.55c-1.72-4.48-4.64-2.23-6.35,4.88-.95,3.94-2.64,7.93-3.77,8.87s-2,4.26-2,7.4c0,10.8-13.11,22.42-15.33,13.59-1.09-4.35.4-7.08,3.26-6,4.28,1.64,7.72-1.85,7.72-7.81,0-4.69-.53-5.73-3.15-6.11-4.46-.66-5.18-4.09-.86-4.09,2.54,0,4.12-1.35,5.89-5.07,1.33-2.79,3.08-5.07,3.89-5.07S620,176.79,620,175c0-2.86-.49-2.65-4.83,2.08-9.65,10.54-32.85,5.63-32.85-7,0-1.12-1.68-2.46-3.73-3a7.91,7.91,0,0,1-5-4.2c-1.38-3.61-6.27-4.84-14.49-3.63-6.3.92-9,11.61-2.9,11.61,1.69,0,2.69-.61,2.23-1.36-.88-1.42,15-.74,16.44.71s-3.23,3.43-10,4.34c-29.28,4-35.19,25.78-16.27,60.06,9.89,17.91,16.26,23.19,28,23.19,9.58,0,25.53-10.66,28.11-18.8.51-1.61,1.49-2.94,2.18-2.94,1.49,0,.15,15.62-1.64,19.1a13.54,13.54,0,0,0-1.25,5.18c0,1.5-1.94,5.3-4.31,8.43s-4.32,7.08-4.35,8.77c0,3.58-3.56,7-5.77,5.65-2-1.22-2-6.12,0-7.34a2.51,2.51,0,0,0,.78-3c-.42-1.09.89-3.95,2.9-6.34s3.26-5,2.76-5.83.85-3.77,3-6.59c5.52-7.24,3.64-7.55-3.67-.6-9.42,9-22,10.88-33.24,5.06-5.47-2.83-6.21-1.7-6.15,9.49,0,6.16-.47,8.56-1.7,8.15-1-.36-1.73-3.55-1.73-8.07,0-7.05-.22-7.48-3.68-7.48a68.26,68.26,0,0,1-12.14-2.2c-7.77-2-8.6-2-10.22.22s-1.84,2.13-2.58-.7c-.45-1.71-1.6-3.11-2.57-3.11s-1.44,1.18-1,2.9c.87,3.32-.25,3.57-5.43,1.21-2-.92-3.69-2.81-3.69-4.19,0-12.37-37.54-1.66-53.61,15.29-4.38,4.63-9.6,10.11-11.59,12.18-8.12,8.44-8.09,8.23-2.35,15.23,2.88,3.52,5.29,7.27,5.35,8.34.17,3,5.46,13.77,5.58,11.3s13.15-3.87,13.15-1.37a1.43,1.43,0,0,1-1.45,1.41c-.79,0-1.45,1.61-1.45,3.58s-1.33,6-3,8.87c-3.81,6.76-3.26,7.13,3,2,4.4-3.61,4.84-4.53,3.34-7-1.68-2.74-1.19-4.58,1.21-4.58.65,0,2.58,2.77,4.3,6.16s4,6.68,5.1,7.32c2.82,1.64,2.49,3.44-1.63,8.84-5,6.55-6.06,12.92-2.95,17.66,1.36,2.08,2.14,5.07,1.73,6.63-.64,2.48-.2,2.72,3.5,1.91,3.53-.78,4.23-.47,4.23,1.85,0,3.5,5.63,6.14,13.11,6.14,4,0,5.73.63,5.73,2.07,0,3-13.68,4.35-27.18,2.64-7.47-.94-11.84-.93-13.06,0s-2.63.74-4.46-.92c-3.45-3.12-15.51-3.26-16.68-.2s-3.83,2.78-3.83-.2-11.8-1.92-18.53,1.91-6.12,4.08,9.48,4.22c7.77.07,19.67.84,26.44,1.71,12.25,1.58,40.8,1.27,45.39-.49Zm-16-64.38c4.88-16.85,8.2-23.68,8.41-17.32.11,3.28.28,3.2,2.18-1.15,2.72-6.22,4.06-6,2.85.49-1.28,6.82-3.78,12.18-5.69,12.18-.83,0-3.06,1.8-4.95,4s-3.15,3-2.8,1.81ZM482.36,312c0-1.75.63-3.58,1.43-4.07,1.85-1.14,1.85,2.21,0,5.07C482.65,314.74,482.38,314.56,482.36,312Zm18.56-6.23c1.34-3.18,3-5.79,3.68-5.8,1.51,0-.17,7.23-2.27,9.76-3.05,3.68-3.77,1.66-1.41-4Zm7.5-4.36c0-1.6.66-2.9,1.45-2.9s1.45,1.3,1.45,2.9-.65,2.89-1.45,2.89S508.42,303,508.42,301.39ZM574,249.61c-3.25-1.13-1.91-4.37,1.81-4.37,2,0,3.62.82,3.62,1.83C579.42,249.21,576.61,250.52,574,249.61Zm-6.74-10c-.73-1.88-.21-2.16,2.66-1.44a12.94,12.94,0,0,0,7.26-.8c4.64-2.11,6.63-.47,2.87,2.37S568.38,242.6,567.25,239.64Zm-.16-9.26c-3.19-1.77-4.54-3.79-5.18-7.73-1.11-6.79-1.46-7.09-8.51-7.28-6.72-.17-7.07-1-2.69-6,6.15-7.09,11.68-3.11,13.55,9.77,1,7.19,2.64,8.26,8,5.38,3.27-1.75,3.57-.3,1,4.7-1.78,3.44-1.94,3.47-6.15,1.14ZM543.2,206.69c0-4.94,9.4-9.49,15.09-7.3,4,1.51,2.51,3.46-2.58,3.46a16.06,16.06,0,0,0-8.69,3C544,208.24,543.2,208.41,543.2,206.69Zm32.24-.51c-5.13-1-4-5.71,2.17-9,6.42-3.37,11.78,2.71,6.78,7.7C582.1,207.22,581.37,207.32,575.44,206.18Zm7-4.09c-.07-1.86-6-2.76-6-.91,0,1.53,2.84,3.06,4.81,2.6A1.68,1.68,0,0,0,582.49,202.09Zm25.39-.24c-1.73-1.73-.93-4.79,1.25-4.79a2.14,2.14,0,0,1,2.17,2.09C611.3,201.57,609.23,203.2,607.88,201.85Zm-38.6-4.68c0-3.52,7.7-10.25,11.72-10.25,5.89,0,5.28,2.37-.92,3.53-3.49.66-5.65,2.1-6.75,4.51-1.59,3.49-4.05,4.83-4.05,2.21Zm-102,172.48a32.69,32.69,0,0,0,.64-11.85l-.95-6.42-1.69,5.87c-2.81,9.75-3.58,14.92-2.6,17.47,1.22,3.17,2.62,1.63,4.6-5.07Zm-8.35.55c1.27-12.19,6.14-23.82,11.92-28.46,5.41-4.35,5.6-4.77,3.35-7.26-5.06-5.6-19,16.34-20.42,32.18-.74,8.2-.58,8.88,1.94,8.4C457.52,374.71,458.58,373.09,458.89,370.2Zm-9.21-1.8a109.18,109.18,0,0,1,3.47-13.76c4.89-15.19-1.73-10.73-7.73,5.21-4.59,12.19-4.6,14-.09,14,3,0,3.68-.84,4.35-5.43ZM417.92,365c1.7-2.74-.78-3.42-3.3-.9-2.26,2.26-2.26,2.45-.05,2.45A4.29,4.29,0,0,0,417.92,365Zm294-3.81c3.81-4.12,3.92-6.5.14-3.36-2.95,2.44-2.85,2.09,2.13-7.72a60.1,60.1,0,0,0,5.24-15.61c.87-6.55,2.63-9.84,4.34-8.13.6.6-3.06,15.12-5.92,23.52-1,2.89-1,2.89,1.39,0,1.31-1.6,3.12-5.67,4-9.06,2-7.44,4.51-8.16,3.68-1.06-.88,7.53,1.76,5.61,7.09-5.15,5.71-11.56,5.77-12.56.8-13.56-7.8-1.57-13.73.91-17,7.09a29.14,29.14,0,0,1-8,9.08,16.29,16.29,0,0,0-6.52,8.27,27.44,27.44,0,0,1-4.71,8.63c-4.44,5.1-4.1,7.2,1.45,9,7.21,2.36,8,2.24,11.85-2Zm-58.81-4.13c2.67-5.86,1.93-7.58-1.22-2.83s-3.58,6.52-1.68,6.52C650.86,360.79,652.16,359.13,653.09,357.1Zm34.28,2.58c4.27-3.13,12.32-13.77,12.32-16.28,0-4.52-1.84-3.48-7.69,4.35-7,9.36-14.35,10.29-20.38,2.58-3.81-4.86-6.17-4.84-4.62.05,2.58,8.12,14.55,13.59,20.37,9.3Zm-143-9.62c4.12-3.51,8.32-6.68,9.34-7.05s1.42-1.12.89-1.69c-2.08-2.25-20,10.26-20,14C534.51,357.64,537,356.3,544.33,350.06Zm143.34-2.59c4.74-4.6,6.8-9,2.57-5.48-1.22,1-2.62,1.42-3.12.92s.77-2.24,2.84-3.86c2.93-2.31,9.73-16,9.73-19.61,0-1.35-11.45-.62-12.32.78-1.65,2.67-3.62,1.49-3.62-2.17,0-3.18-4.3-5.68-4.37-2.54,0,.6-1.28,7-2.81,14.3-4.47,21.19,0,28.37,11.1,17.66Zm-8.84-4.91c-1.43-3.73-1-15.09.57-15.09.8,0,1.45,2.89,1.45,6.43s.65,6.84,1.45,7.33c2.13,1.32,1.77,3.62-.57,3.62A3.56,3.56,0,0,1,678.83,342.56Zm49.67,5.06c-3.12-2-4.18-1.56-4.18,1.63,0,2.56.41,2.73,3.1,1.3C729.89,349.22,730.11,348.63,728.5,347.62ZM356.88,344.8a115.92,115.92,0,0,0,16.18-11.93c13.72-12.23,22.71-19.31,27.88-22a13.59,13.59,0,0,0,6.29-6.69c1.53-4.37,15.82-13.27,24.33-15.14,2.5-.55,8.82-6.1,17.32-15.23,10.16-10.91,15.35-15.29,21.61-18.2,4.52-2.11,9.79-4.58,11.7-5.49,4.87-2.33,28.1-2.07,38.87.43,19,4.4,6.66-14.77-14.81-23.07-23.82-9.22-32.89-21.87-23.91-33.36,1.56-2,2.85-4.44,2.87-5.43s1.43-1.81,3.15-1.81c3.09,0,3.09,0,.36-3.11S486,180.7,490,181.43c4.83.89,5.13-.61.72-3.68-3.94-2.75,0-3.51,4.81-.93,1.86,1,2.8,1,2.8,0,0-.8-2-2.47-4.35-3.71-5.85-3-5.47-4.16,1-2.94,5.83,1.09,4.9-2.43-1.15-4.35-4.07-1.3-2-3.29,2.65-2.61,3.64.53,3.77.4,1.36-1.28-7.73-5.41-7.72-5.39-4.22-5.44,1.79,0,3.26-.39,3.26-.81,0-5.85-17.19-25.93-23.56-27.53-9.91-2.49-18.9,9.74-10.16,13.81,5.46,2.53,5.82,3.67,1.84,5.79-5.45,2.92-3.75,8.53,2.9,9.59,6.24,1,7,2.07,3.62,4.9-3.59,3-2.72,7.25,1.47,7.25,3.41,0,3.58.35,2.74,5.6s-.64,5.69,3.72,7.21c2.53.88,4.21,2.25,3.72,3-2.13,3.46-12.37-3-12.37-7.83a9.41,9.41,0,0,0-2.95-5.89,6,6,0,0,1-2.13-6.44c.67-3-.05-4.41-3.7-7.11-3.92-2.9-4.41-4-3.65-8A15,15,0,0,0,457,141c-2.77-5.57-1.76-8.25,4.6-12.18,5.57-3.44,5.17-4.49-2.66-7-13.94-4.45-59.17-1.84-59.17,3.41,0,2.84,6.42,5.09,17.49,6.12,5.57.52,10.48,1.5,10.9,2.18,2.09,3.38,7.19,1,9.46-4.39,1.92-4.58,3.22-5.72,7.24-6.35,6.65-1,8.61,1.22,2.13,2.43-10.49,2-10.29,15.24.23,15.32,5,0,3.86,2.48-1.67,3.52-7.8,1.46-7.32,9.54.57,9.54,7.5,0,9,3.16,4.36,9.09-4.95,6.3-3.88,9.42,3.63,10.55,4.45.66,6.52,1.68,6.52,3.19a6.38,6.38,0,0,0,2.53,4.13c2.76,2.1,1.62,2.43-9.05,2.65-8.37.18-5.8,5.8,2.89,6.34,9,.56,10.58,2,6.37,5.9l-3.29,3.07h4c2.57,0,3.79.65,3.4,1.81-.34,1-2.84,1.81-5.56,1.81-3.42,0-4.94.67-4.94,2.17s1.7,2.18,6.52,2.18c7.2,0,7.29.18,4.39,9.17-2.24,7-1.09,8.87,5.4,8.92,1.92,0,3.26.91,3.26,2.19a2.19,2.19,0,0,1-2.18,2.18c-7.93,0-.51,8.38,8.52,9.62,7.36,1,8.57,1.84,6.8,4.7-1.35,2.19-13.55-1.35-17.76-5.15-2.68-2.42-5.53-1.51-5.53,1.78,0,1.15,1.31,2.09,2.9,2.09,4.42,0,3.47,2.09-2.17,4.78-5.24,2.5-6.76,5.36-2.84,5.36,1.22,0,4.78-1.3,7.91-2.9,7.22-3.68,10.52-3.69,5.79,0-7.91,6.17-20.28,8.83-20.28,4.36,0-2-1-2.91-3.26-2.92a30.15,30.15,0,0,1-6.32-.84c-3-.8-10.71,4.61-10.71,7.47,0,.67.79.43,1.74-.52,5.51-5.51,4.4,2.52-1.17,8.48-6,6.43-3.49,7.69,5.61,2.82,4-2.16,5.42-2.41,5.42-1,0,1.06-3.28,3.46-7.28,5.34-5,2.33-6.69,3.78-5.43,4.59,2.11,1.37,1.79,1.64-10.14,8.58-4.2,2.45-9.75,4.64-12.32,4.87s-7.13.9-10.12,1.48c-3.33.66-5.43.52-5.43-.36,0-2.53,4.12-4.95,6.92-4.07,1.59.51,6.24-.93,11.29-3.5,12.67-6.43,15.45-8.94,14.88-13.5l-.49-3.88-8.4,6.68c-4.62,3.68-8.85,6.24-9.39,5.69-1-1,.57-2.47,13.81-12.51,8.1-6.15,9.38-7.89,4.71-6.4-1.6.5-2.9.31-2.9-.43,0-3.12-19.29-3.07-23.88.07-31.1,21.21-20.61,22.66,20.08,2.79.69-.34,1,.28.6,1.37s-4.09,3.71-8.29,5.81a67,67,0,0,0-14,10.05c-3.5,3.43-6.86,5.7-7.47,5s-.31-1.48.69-1.84c4.13-1.47,1.35-3-5-2.81-8.35.29-9.57-2.35-4.11-8.84,5.08-6,4.73-6.33-3.38-2.9-9.72,4.11-16.34.65-12-6.27,1.55-2.5,1.1-2.6-7.74-1.78l-9.4.88v-4.44c0-3.51,1.45-5.69,6.88-10.34l6.89-5.9h-6.71c-4.18,0-7.38-.83-8.51-2.19a7.69,7.69,0,0,0-5.25-2.17c-4.73,0-4.34-2.65.54-3.71,12.28-2.66,13.48-6.43,2-6.43-9.87,0-14.08-3.16-13.55-10.15.28-3.68-.47-4.54-6.17-7.06-7-3.12-9.88-8.52-6.57-12.51,1.56-1.89-.53-2.18-16.87-2.34-10.25-.09-21.91-.34-25.89-.55s-17.91-.83-31-1.4c-16.05-.7-26.92-1.93-33.67-3.8-10.92-3-18.7-3.57-18.7-1.31,0,.79-2.93,1.44-6.52,1.44s-6.52-.65-6.52-1.44,2.74-1.45,6.09-1.45c8.1,0,5.48-2.08-5.24-4.15-10.89-2.09-11-2.09-11,.6,0,5.13,21.27,13,34.41,12.72,9.49-.2,12,.17,12,1.81,0,2.33,5.16,2.82,6.53.61s10.44-1.74,11.39.72c1.08,2.84,6.72,2.84,6.72,0q0-2.17,4.34-2.17c4.71,0,5.94,2.27,1.82,3.35-1.4.36-.09.74,2.89.83s5.44-.49,5.44-1.28c0-2.39,10.13-1.73,11.07.72s5.67,2.94,7,.73c1.12-1.81,9.42-1.86,12.24-.08a4.87,4.87,0,0,0,4.86-.16c5.77-3.09,28.33,1,24.82,4.54-1.86,1.86-7.09,2-33.95,1l-43.47-1.66C204,202.08,171.62,192.34,171.48,182c0-3.31-1.16-4.72-5.44-6.92-2.95-1.51-5.37-3.39-5.37-4.17,0-1.86-.33-1.93,9.53,2.06,4.72,1.91,15.53,4.87,24,6.58l15.44,3.11,4.84-2.95c5.64-3.44,15.4-4.28,11-1-1.4,1.06-2.54,2.34-2.54,2.85,0,1.5,5.55,1.06,6.52-.52.5-.8,2.57-1.45,4.61-1.45,3.14,0,3.44.34,1.91,2.17s-1.39,2.18.37,2.18a28.11,28.11,0,0,0,7.38-2.18c7.36-3.07,10.05-2.85,8.92.73-1.19,3.75,1.2,3.73,7.32,0,4.71-2.91,7.84-1.93,5.57,1.74-.74,1.2-.23,1.37,1.72.58,10.18-4.11,11.14-4.22,13.12-1.52,1.51,2.07,2.63,2.33,5.21,1.23,1.82-.78,6.18-.94,9.8-.35,11.05,1.78,15.94,1.5,15.94-.91,0-1.61-1.69-2.17-6.52-2.17-4.59,0-7.38-.86-9.42-2.9-1.59-1.59-3.79-2.9-4.89-2.9-2.29,0-6.34-4.36-5.25-5.65,2-2.39-10.65-1.58-13.34.85s-5.48,2.59-29,2.23c-21.1-.32-26.42,0-27.74,1.65-2,2.55-12,4.43-13.15,2.49-.49-.78,1.42-1.85,4.23-2.38,7.24-1.36,6.34-3.53-1.45-3.53-4.5,0-6.83.68-7.4,2.17-.95,2.47-10,3-11.4.72-.5-.82.71-1.44,2.82-1.44,5.39,0,4.55-2.22-1-2.64-6.5-.49-24-5.81-25.09-7.65-1.64-2.66.23-2.83,6.53-.61,4.5,1.59,9.45,1.95,18.34,1.35,8.23-.55,12.17-.31,12.17.74,0,.86-1,1.56-2.17,1.56s-2.18.65-2.18,1.45c0,2.1,3.24,1.78,8.47-.83,2.5-1.25,6-2,7.83-1.7,3.26.58,3.26.58-.36,2.19l-3.62,1.61,3.82.09a19.77,19.77,0,0,0,8-2.08c4.69-2.44,12.77-3,11.39-.73-.49.8-2.16,1.45-3.7,1.45s-2.82.65-2.82,1.45,2.35,1.45,5.23,1.45c3.89,0,5-.52,4.45-2-1.18-3.08,4-3.84,18.94-2.81l13.4.92v-3.72c0-4.11,4.51-5.62,22.46-7.53,4.78-.51,11.63-1.5,15.22-2.2,13-2.53,15.94-2.82,15.94-1.59,0,.69-4.73,2.42-10.5,3.83-14.55,3.56-10.7,4,8.32.85l15.94-2.61-4.71-2.46c-5.48-2.87-5.82-4.64-1.72-9l3-3.18-5-.93c-2.73-.51-6-.52-7.33,0-2.55,1-3.33,6.4-.92,6.4a1.41,1.41,0,0,1,1.45,1.34c0,4.39-39.1,5.69-49.73,1.66-2.4-.92-16.94-1.6-35.5-1.66-17.28,0-32.72-.66-34.31-1.34-1.77-.76,7.41-1.29,23.53-1.35,26.24-.1,26.41-.12,24-3-2.87-3.34-16.45-3.09-49.66.92-21.36,2.58-21.23,2.52-11.35,5.37,16.12,4.63,21.72,5.21,56.26,5.77,19.9.33,35.18,1.15,34.78,1.87s-13.44,1-29,.76c-19.41-.35-29.62,0-32.61,1.2-4.76,1.87-37.61,2.26-56,.65l-11.1-1-4,8.5a69,69,0,0,0-5.06,15c-1.8,11.47,4.26,72.3,7.61,76.34a3.1,3.1,0,0,1,.57,3.25c-.5.81,0,3.28,1.12,5.5a18.67,18.67,0,0,1,1.35,9.44c-.6,4.79-.08,5.95,4.51,10S165,300,166.73,308.86c.46,2.41,9.09,13.11,18.57,23,10.46,11,39.21,16.43,80.42,15.34,21.48-.57,39.2-.21,54.34,1.1C346,350.59,346.75,350.52,356.88,344.8ZM402,266.69c2.13-2.13,12.24-6.06,12.24-4.76,0,1.69-8,6.13-11,6.13C401.58,268.06,401.13,267.55,402,266.69ZM308.12,236.8c-.37-.36-10.38-1.6-22.26-2.74-35.21-3.39-64-9.73-72.55-16-5.46-4-.45-3.51,14.78,1.43,16,5.2,22.91,6.52,17.34,3.35a17.47,17.47,0,0,1-4.67-4.14c-1-1.4-4.77-2.91-8.69-3.48-19-2.76-39.52-10.42-39.52-14.73,0-1.49,1.88-1,7.21,1.75a45.64,45.64,0,0,0,16.3,4.57c5,.44,10.37,1.68,11.95,2.76,3.34,2.3,8,2.6,8,.52,0-.8,2-1.45,4.35-1.45s4.35.65,4.35,1.45-1.41,1.45-3.14,1.45c-7.73,0-.07,1.79,15.66,3.66,20.72,2.46,31.2,2.72,28,.69a15.36,15.36,0,0,0-6.52-1.53c-18.65-.54-4.26-2.34,17.78-2.23,28.08.13,37.43,2.17,20.62,4.48-5.18.71-7.25,1.64-7.25,3.26,0,2.33-4.31,2.31-50-.25-6.37-.35-9.8-.32-7.6.08,5.12.93,5.18,3.43.07,3.43-6.2,0-2,2.32,7.41,4.14,10.45,2,11,2,11,.21,0-.8-2-1.45-4.35-1.45-3,0-4.34-.71-4.34-2.34s.8-2.1,3.26-1.33a76.23,76.23,0,0,0,10.86,1.79c8.09.84,9.7,2.58,4.35,4.73-3.16,1.27-3.14,1.31.64,1.4,2.14.05,4.27-.5,4.72-1.23,1.65-2.68,12.42-3.44,15.05-1.07,1.93,1.76,3.72,2,8.24.94,3.17-.72,6.3-.77,6.95-.11s4.24.9,8,.56c6.32-.58,6.59-.47,4,1.62-4.09,3.3-1.75,4.4,3.65,1.71a22.88,22.88,0,0,1,8.25-2.32h3.6l-4.14,3.26c-3.88,3-28.95,5.57-31.37,3.15Zm169.15-5c-.52-.84,1-1.44,3.62-1.44s4.15.6,3.63,1.44-2.13,1.45-3.63,1.45S477.76,232.63,477.27,231.83ZM317.88,220.24c-.55-.9,2.16-1.45,7.16-1.45,4.43,0,8.06.66,8.06,1.45s-3.23,1.45-7.16,1.45S318.37,221,317.88,220.24Zm150.7-2.9c.49-.79,2.16-1.44,3.7-1.44s2.82.65,2.82,1.44-1.67,1.45-3.71,1.45S468.07,218.17,468.58,217.34ZM257.12,211.7c-1.94-.76-2.27-1.43-1.07-2.17,2.24-1.39,7.79.37,6.71,2.12-1,1.55-1.78,1.56-5.64,0Zm-55.88-20.32c0-.74,1.94-1.76,4.31-2.28,5-1.11,8.68.39,5.62,2.32C208.54,193.09,201.24,193.06,201.24,191.38Zm250-26.2c.49-.8,3.14-1.45,5.88-1.45s5,.65,5,1.45-2.65,1.45-5.89,1.45C452.62,166.63,450.65,166.06,451.19,165.18Zm-299.58-3.9c-1.39-.36-2.53-1.34-2.53-2.17s1.4-1.14,3.26-.64a30,30,0,0,0,4.34.9,1.34,1.34,0,0,1,1.09,1.46C157.77,162.32,156.06,162.45,151.61,161.28Zm294.51-10.59c0-.8,1.34-1.45,3-1.45s2.58.65,2.09,1.45a3.83,3.83,0,0,1-3,1.45C447.06,152.14,446.12,151.49,446.12,150.69Zm-30.43-26.08c2.87-1.86,15.94-1.86,15.94,0,0,.81-4,1.44-9.06,1.43C416.19,126,414.16,125.6,415.69,124.61ZM440.44,343c-1.87-1.88-2.17,1.62-.49,5.77.94,2.34,1.13,2.25,1.57-.77.27-1.89-.21-4.14-1.08-5Zm5-4.95c-1.58-4.11-2.46-.78-1.29,4.9,1.08,5.2,1.19,5.3,1.65,1.47a16.78,16.78,0,0,0-.36-6.37ZM439,334.59q-1.39-3.48-1.49-1.08c-.13,3.21,1.75,8,2.38,6.08C440.18,338.76,439.77,336.51,439,334.59Zm235.23-8.21c3.41-17,4.91-21.62,9.56-29.33a70.17,70.17,0,0,0,5.77-12.21c2.49-7.8,6.94-15,9.86-16,9.57-3.26,12.38-11.36,4.53-13.08-11.93-2.62-24.52,17.34-27.42,43.48-.71,6.38-2.28,14.36-3.49,17.75-2.56,7.15-4.28,22.1-2.53,22.1.65,0,2.33-5.71,3.72-12.68Zm40.63,2.07c3.4-6.12,2.86-6.9-5.33-7.8-6.63-.73-11.07,4.23-9.16,10.24.42,1.3,1.06,3.33,1.42,4.5,1.13,3.63,9.74-.95,13.07-6.94Zm-266-4.53c2.82-2.79-1.6-15.57-8.17-23.62-5.94-7.28-10-7.87-19.87-2.9-6.36,3.21-8.29,5.43-4.73,5.44,3.26,0,12.37,9.63,16.11,17C436.06,327.53,443.38,329.32,448.82,323.92Zm252.32-8.51c0-10.44-6.66-15.68-10-7.87l-2.63,6.16,3.78.92c4.39,1.06,8.85,1.46,8.85.79Zm-563.5-11.49c5.21-12.57-.6-28.08-8.61-23-1.58,1-1.34,3.64,1.32,14.47C133.91,309.93,134.74,310.9,137.64,303.92Zm565.29-27.58c2.41-3.82,4-7.31,3.57-7.75-1.49-1.49-14.09,19.93-14,23.78,0,1.37,1.41-.11,3-3.3s5-8.92,7.37-12.73Zm83.87-5.12c13-10,31.76-17.21,62.21-24.11,22.43-5.09,46.48-14.35,56.21-21.67,4.51-3.38,11-7.26,14.48-8.61,10.59-4.15,16.17-9.51,16.17-15.55,0-7.27-.55-7.4-11-2.7a130,130,0,0,1-15.46,5.82,51.87,51.87,0,0,0-9,3.27c-3.66,2-16.72,3-39.84,2.79-48.83-.36-46.86-.48-49.79,3-2.38,2.8-4,3.14-13.3,2.84L786.83,216l2.06,4c5.56,10.65,1.07,17.32-10.6,15.72-5.48-.75-6.32-.54-5.58,1.39,2.24,5.85-7.06,12.07-14.07,9.41-3.54-1.35-3.89-1.17-3.89,1.93,0,5.19-3.34,7.11-10.48,6a151.06,151.06,0,0,0-18.86-.75c-7.48.11-12.68-.4-12.68-1.24s-2.44-2.08-5.43-2.87l-5.44-1.45,7.68-.15c6.57-.13,16.23-3.21,16.23-5.19,0-3.46-3.9-8-6.87-8-1.93,0-8.35-1.67-14.26-3.71s-11.4-3.3-12.21-2.8-2.89.45-4.64-.11c-2.91-.92-2.75-1.15,1.82-2.65,4.33-1.42,6.19-1.15,13.7,1.95,8.33,3.43,21,4.88,23.27,2.65s-2.6-5.25-9.37-6.18c-7.34-1-16.07-5.4-16.07-8.08,0-.88,2.32-.15,5.16,1.6,5.78,3.58,25.12,6.12,23.23,3.06-.57-.92-2.46-1.66-4.21-1.65-4.2,0-21.28-6-21.28-7.53s-.84-1.63,9.91,1.74c9.48,3,17.62,3.76,17.62,1.7,0-.65-3.14-2-7-3-6.79-1.74-17.12-7-16-8.19.31-.32,5,1,10.37,3,10.64,3.87,19.13,4.38,27,1.64,5.15-1.78,5.18-1.87,4.08-10.76a2,2,0,0,0-1.79-1.84c-5.66-.1-21.76-3.21-29-5.6-9.21-3-16.24-1.3-14.38,3.57,3.34,8.68-14.83,16.77-24.15,10.75-1.56-1-.09-1.41,5.22-1.42,9.11,0,16.52-2.47,16.52-5.44,0-3.12-4.33-6.08-9-6.13-2.15,0-4.31-.7-4.8-1.5s1.71-1.45,5.81-1.45c8.07,0,12.3-2,12.3-5.84,0-2.4-1-2.85-6.31-2.85-8.22,0-19.77-1.6-19.77-2.73,0-.49,4.73-.89,10.51-.89,11.49,0,19.19-2.45,21.55-6.86,2.23-4.16-3.44-9.81-9.85-9.81-2.65,0-4.82-.57-4.82-1.26,0-1.44,7-3.08,13.14-3.08,2.24,0,4.54-.75,5.11-1.67,3.42-5.53-21.84-11.42-51-11.89-14.68-.23-18-1.75-18-8.25,0-7.86,3.46-9.52,13.53-6.46,9.33,2.83,45.06,4.67,46.47,2.4.56-.92.33-1.66-.51-1.66a1.5,1.5,0,0,1-1.53-1.45c0-.8,1-1.45,2.16-1.45,8.21,0,15.52-6.2,10.51-8.91-39.38-21.35-94,13.93-67.44,43.52,10.14,11.27,12,16.19,9.85,26.08-1,4.47-2.23,10.85-2.81,14.17-1.26,7.28-4.22,12-12.62,20.18-6.58,6.4-6.52,7,.94,8.57,14,2.95,17.78,10.78,10.63,21.84-2.37,3.66-1.17,5.18,3.21,4.08a10.79,10.79,0,0,1,6.67,1c7.54,4.09,18.6,4.31,24.23.48,6-4.06,15.42-4.73,19.82-1.4a12.26,12.26,0,0,0,6.17,2.17c4.5.06,9,2.58,9,5.07,0,1.31,2.93,2.57,8.33,3.59,14.82,2.8,30,6.11,33.69,7.34,6.46,2.15,15.35,1.59,19-1.2Zm-91.1-27.84c-5.24-2.11-3.85-2.68,5.8-2.4A77.51,77.51,0,0,0,716,240.1c4.26-.9,5.43-.71,5.43.9C721.42,244.48,702.75,246.21,695.7,243.38Zm12-17.34c-1.14-1.85,3.66-1.85,6.52,0,1.7,1.1,1.32,1.41-1.73,1.42C710.31,227.48,708.15,226.84,707.66,226ZM818,221.71c-12.28-2.22-12.35-4.79-.17-6.62,6.63-1,7.07-.88,5.25,1.31s-1.55,2.39,1.73,2.39c2,0,4.12-.65,4.61-1.45,1.26-2,5.15-1.81,4.71.28-.6,2.87,4.73,3,7.81.27,2.06-1.86,3.17-2.12,3.92-.92,1.16,1.88,29.55-1,39.85-4,7.13-2.09,8.72-.65,2.26,2.05C874.86,220.46,833.12,224.45,818,221.71Zm-137.1-5.63c0-.93,2.44-1.63,5.69-1.63a14.56,14.56,0,0,0,10.14-3.75c5.06-4.26,6.52-1.47,1.58,3C694.9,216.74,680.85,218.66,680.85,216.08Zm43.72-15.43c-10.47-2.55-11.49-4.25-1.7-2.83,4.39.63,9.77,1.29,12,1.46,6.07.48,6.32.61,4,2.13C736.14,203.13,734.36,203,724.57,200.65ZM130.38,270.07c1.68-2,1.57-2.27-.79-1.82a4.69,4.69,0,0,0-3.34,2.34C125.39,273.18,128.08,272.83,130.38,270.07Zm251.44-4.29c18.82-7.66,46-25.25,39-25.25-1.78,0-11.56,4.51-12.31,5.67-1.71,2.7-23.83,13.35-26.35,12.69-2.88-.76-9.05,5.61-7.64,7.89,1,1.64.74,1.67,7.32-1Zm-256-3.46c1.17-.74,1.69-1.79,1.15-2.33-1.33-1.33-5.46.36-5.46,2.23s1.5,1.87,4.31.1ZM722.54,262c-.89-2.69-4-3.13-4-.57a2.3,2.3,0,0,0,2.29,2.29C722.08,263.71,722.86,262.94,722.54,262Zm-345.24-9.2a99.23,99.23,0,0,0,14.88-7.37c5.34-3.62,7.57-4.27,7.57-2.2,0,.68-4,3.68-8.79,6.67s-8.5,5.71-8.14,6.07,17.39-6.91,21.16-9.26c.33-.21-.12-1.85-1-3.64a26.63,26.63,0,0,1-2.06-5.7c-.36-2-3-1-14.59,5.54-7.78,4.38-15.16,7.76-16.39,7.51s-.13-1.55,3.29-3.3c3-1.56,9.94-5.63,15.35-9.06s10.29-6.22,10.86-6.23c1.6,0,15-11.83,14.3-12.57-.94-.95-15.43,6.61-15.43,8.05,0,.66-4.59,3.32-10.2,5.91C357.81,247.17,348.32,264.38,377.3,252.79ZM126.46,252c.77-.71.64-3.79-.29-7.45-5.24-20.47-9.55-43.67-8.61-46.36.36-1,1.48,2,2.48,6.8s2.39,10.58,3.11,12.89a36,36,0,0,1,1.29,8.78,13.83,13.83,0,0,0,2.24,7.39c2.13,2.67,2.2,2.6,1.43-1.53-1.56-8.32-2-10.17-3-14.13-.81-3.17-.52-4,1.42-4,1.56,0,2.23-.91,1.88-2.54-.31-1.39-1.31-2.38-2.22-2.19s-2.07-2.1-2.58-5.07S122.4,198,122,196.51c-.49-1.75-.18-2.36.85-1.72.88.54,1.65,2.42,1.7,4.17.32,10,2.58,7.56,2.45-2.63-.08-6.37.34-13.28,1-15.34,2.69-9.19-3.18-10-24.87-3.29-13.41,4.13-13.25,3.87-8.48,13.26,5.61,11.07,19.21,45.19,21.94,55C119.08,255.2,121.49,256.66,126.46,252Zm311.74-2.68c10.43-4.89,12-6.06,11.27-8.69-1.14-4.38-4-3.79-13.12,2.76-7.9,5.65-12,7.16-12,4.44,0-.74,1.29-1.76,2.86-2.26a14.88,14.88,0,0,0,5.64-4.44c1.53-1.95,3.51-3.54,4.39-3.54a1.53,1.53,0,0,0,1.6-1.45c0-4.55-17.81,8.61-21.84,16.13-2.57,4.81,7.66,3.38,21.17-2.95Zm291.91-.1c1.61-1,1.74-1.78.51-3-1.83-1.83-7.75.48-7.75,3,0,1.78,4.41,1.78,7.24,0Zm20.21-1.12c-.26-8.07-13.57-26.18-18-24.49-1.91.74-1.81,1.54.7,6,1.59,2.84,2.89,6.36,2.89,7.84a6.68,6.68,0,0,0,2.18,4.48c2.52,2.09,2.85,4.34.64,4.34-.84,0-2.83-2.93-4.41-6.52-2.66-6-7.12-9-7.08-4.71,0,4.65,12.62,15.58,17.94,15.58,4,0,5.21-.57,5.14-2.53Zm-289.75-1.76c1.17-.74,1.82-1.63,1.44-2-1.18-1.1-10.1.75-10.1,2.09,0,1.68,5.93,1.61,8.66-.11Zm-327.44-5.91c-.59-3.22-1.54-6.32-2.11-6.88-1-1,.49,9.57,1.67,11.65C134,247.57,134.15,246.08,133.13,240.47Zm634.63-1.8c0-2.17-7.12-8.28-16.27-14-3.78-2.38-6.88-5.35-6.88-6.61,0-1.6,2.72-.23,9,4.56,13.25,10,13.75,10.31,9.82,5.59C752.57,215.1,749.93,213,744.4,213H739l.82,5.43C741.71,231.07,768,250.07,767.76,238.67Zm-348.08-1c8.83-4,16.29-10.07,16.29-13.24,0-4.06-2.58-3.34-13.64,3.82-5.51,3.57-11.21,6.49-12.67,6.49s-2.67.27-2.67.61a14.88,14.88,0,0,1-.87,2.9C404.86,241.51,411.87,241.21,419.68,237.66Zm-38-5.18c10.22-4.62,8.22-6.7-2.16-2.24-10.21,4.39-13.36,2.9-3.64-1.74,6.89-3.28,6.68-6-.36-4.69-9.92,1.81-21.09,9.94-18,13.1,1.9,2,15.56-.54,24.17-4.43Zm81.5,2.29c7-3.19,7.62-5.43,2.4-9.23-4.89-3.57-9.92-2.15-12.8,3.62C448.23,238.21,451.58,240,463.14,234.77Zm-6.26-5.14c3-2.25,4.64-1.9,3.06.66a4.27,4.27,0,0,1-3.4,1.5c-2.15,0-2.11-.31.34-2.16Zm-8.59.76c1.44-1.6,2-3,1.31-3.06-4-.5-8.82.67-10.73,2.6s-1.82,2.11,1.09,1.24c2-.59,3.26-.36,3.26.57,0,2.41,2.19,1.82,5.07-1.35Zm-24.17-6.53c6.59-4.38,12.6-8,13.36-8a1.43,1.43,0,0,0,1.39-1.45c0-.8-1.14-1.46-2.53-1.47a28,28,0,0,1-5.78-.89c-2.62-.7-4.92.88-12,8.25-13.51,14.16-12,15.15,5.52,3.52Zm360.8,6.71c6.4-4-2-14.24-21.92-26.44-5.54-3.41-6.78-4.86-6.06-7.12,1-3.12-.28-3.6-3.64-1.35-1.89,1.27-1.85,1.64.36,3a5,5,0,0,1,2.54,3.56q0,2.85,16.66,17c8.83,7.51,2.27,5.16-7.15-2.55-5.36-4.4-10.35-8-11.08-8-7.22,0,19.45,22.87,26.93,23.1A7.52,7.52,0,0,0,784.92,230.57ZM134.65,205c-.87-9.31-1.15-20.14-.63-24,.56-4.25.38-7.12-.46-7.12-2.11,0-2.3,29.87-.25,40.19C136,227.37,136.43,224.18,134.65,205ZM374,218.72c11.58-3.8,17.37-8.62,10.36-8.62-2.36,0-5,.68-5.81,1.52-2,2-16,5.7-21.52,5.66-5.88,0-2.6-1.69,9.77-4.93,9.42-2.47,9.74-2.7,8.84-6.39-1.16-4.73-3.24-6.28-7-5.24-6.67,1.85-31.16,2.56-31.16.9,0-1.05,3.07-1.68,8.34-1.71,19.59-.1,41-4.93,25.46-5.74-19.07-1-41,1.38-43,4.67-4.36,6.94,9.21,9.46,34.6,6.42,7.21-.86,9.71-.76,8.64.34-.82.86-5.65,2.12-10.73,2.82-5.72.78-9.9,2.17-11,3.64-1,1.31-2.46,2.39-3.34,2.39-2.74,0-4.69,5.12-2.72,7.16C346.14,224.19,361.92,222.68,374,218.72Zm33.54-1.19c11.73-5.58,29.56-18.22,27.41-19.45-7.28-4.16-34.21,5.06-44.23,15.14-6.66,6.71-.75,5.4,17.35-3.85,8.59-4.38,16.1-8,16.7-8,2.65,0,.69,2.56-3.62,4.74-2.59,1.31-9.42,5-15.19,8.24-6.7,3.74-12.32,5.85-15.58,5.85-2.8,0-5.09.65-5.09,1.45C385.26,225,396.21,222.9,407.51,217.53Zm46.17,4.1c10.79-3,13.1-9.27,4-10.82-5.67-.95-20.5,8.69-17.68,11.51C441.26,223.6,447.75,223.27,453.68,221.63Zm-9-2.36c0-1.42,8.22-4.82,11.64-4.82,1.67,0,1.65.37-.12,2.14-2.53,2.52-11.52,4.61-11.52,2.68Zm361.08-8.66c5.92-1.59-2.57-7.69-17-12.17-8.43-2.63-21-8.76-21-10.25,0-1.86,2.48-1.57,7.18.86,10,5.18,43.54,10.23,43.54,6.56,0-.8,1.26-1.45,2.81-1.45,3.37,0,5.13-2.29,2.84-3.71a2,2,0,0,0-2.74.79c-1.58,2.56-46.62-4-49.88-7.24s-8.1-1.63-8.1,2.63c0,2.23-.78,4.84-1.74,5.8C758.12,196,777.89,204.3,790,204.3c2.14,0,3.89.75,3.89,1.65,0,1.58-4.23,1.36-18.11-.93-3.66-.61-3.31-.22,2.17,2.45,10,4.83,18.15,5.75,27.82,3.15Zm-272.69-3.8c0-7.57,5.41-25,10.14-32.71,5.56-9,5.5-9.52-1.47-11.82-8-2.65-21.84,12.82-21.68,24.23,0,1.42,2-1.33,4.35-6.11,4.59-9.28,11.11-17.59,12.61-16.09.5.5-.39,2.69-2,4.87-6.56,9-5.08,10.06,2.13,1.49,1.87-2.22,4.05-3.65,4.84-3.16s-.11,2.54-2.16,4.71c-5.26,5.6-9.56,13.33-8.68,15.61.42,1.1-.31,4.67-1.62,7.94-1.74,4.33-1.95,6.45-.81,7.83s1.11,2.18-.08,2.91c-2.63,1.63-4.56-1.46-5.36-8.6-.83-7.35-2.47-8.61-3.88-3-1.08,4.31,1,8.86,6.08,13.38S533.06,212.47,533.06,206.81Zm-85.71,1.7c2.51-.88,4.56-2.15,4.56-2.82s-2-.54-4.42.31c-6.76,2.35-6.62.47.25-3.35,6.64-3.7,8.54-6.57,5.21-7.85-2.22-.85-21.32,11.66-21.32,14C431.63,210.61,441.8,210.44,447.35,208.51ZM401.74,202c7.27-2.87,14.67-6.14,16.43-7.25a13.08,13.08,0,0,1,5.27-2c1.13,0,3.13-1.63,4.43-3.62,2.35-3.59,2.33-3.62-2-3.62a11.63,11.63,0,0,1-7.27-2.9c-3.71-3.71-5.66-3.65-11.15.36a134.38,134.38,0,0,1-12.59,7.61c-4.47,2.39-8.13,5.16-8.14,6.16s-1.27,1.81-2.81,1.81c-2.66,0-5.4,2.42-4.15,3.66s14.24-3.6,23.72-8.63c10.08-5.35,12.22-6,12.22-4,0,1.52-24.88,13.11-30.58,14.25-2.31.46-4.2,1.41-4.2,2.1C380.91,208.56,389,207,401.74,202Zm424.74,2.32c1.1-1.79,6.52-1.92,6.52-.16,0,1.54,17.58,1.11,20.17-.49,3.48-2.15-.7-3.46-12.2-3.82s-28.26,2.41-28.26,4.7C812.71,206.26,825.39,206.05,826.48,204.3Zm73.08-.92c10.52-2.63,29.33-9.83,34.46-13.19,4.11-2.69,4.85-14.36,1-15.84-1.81-.69-1.9-1.13-.41-2,4-2.48-.45-3-9.9-1.2-6.45,1.25-23.5,2-49.39,2.1-27.66.13-40,.69-41.2,1.86-2.64,2.63-.58,3.32,4.58,1.52,3.28-1.14,5-1.18,5.68-.13,1.25,2,40.63,2,56.33-.09,12.52-1.64,15-1.1,12,2.55-1.49,1.8-1.46,2.21.2,2.21,1.11,0,3.14-1.3,4.51-2.9,2.59-3,6.85-3.93,6.85-1.45,0,.8,1.23,1.45,2.72,1.45,4.18,0,6.27,3.38,4.68,7.57-2,5.17-24.59,10.39-54.18,12.48-15.67,1.11-22,2.93-19.38,5.56.57.57,3.14.27,5.71-.66a22.88,22.88,0,0,1,9.75-.87c2.79.45,10.1-.22,16.23-1.49,12.91-2.66,14.66-2.79,13.54-1-.45.73-3.27,1.74-6.27,2.25-5.1.86-11.4,3.6-8.39,3.65.75,0,5.64-1,10.87-2.35Zm-50.18-7.58c.65-.11.77-.84.28-1.64s.93-2.24,3.17-3.21l4.07-1.75-5.56-.51c-4.1-.38-6.09.18-7.56,2.11-1.8,2.38-2,2.39-2,.2,0-1.57-1.47-2.61-4-2.9-11.64-1.34,0-2.82,24.15-3.07,23.85-.25,31.35-1,29-2.95-.33-.27-11-.09-23.78.41s-23.94.37-24.86-.3-6.47-1-12.32-.77c-10.53.42-10.59.45-6.29,2.6a11.29,11.29,0,0,1,5.71,6.81c1.48,5,8.61,6.8,20.09,5Zm14.78-2.7c1.94-1.41,3.54-3,3.57-3.65.09-2.3-6.68-.94-9,1.81-1.37,1.6-3.47,2.9-4.67,2.9s-2.19.73-2.19,1.63C851.83,198.05,859.73,196.32,864.16,193.1Zm-417.93-2.56a1.42,1.42,0,0,0-1.56-1.31c-.8.08-4.38.25-8,.37-6.63.22-9.46,3.7-4,4.91C436.23,195.28,446.36,192.31,446.23,190.54Zm434.28,1.38c3.69-1.84,5-1.91,7.43-.4s3.32,1.47,4.72.07c2-2,7-2.41,7-.58,0,.66,2,.91,4.35.56s4.34-1,4.34-1.56,3.1-1,6.89-1.09a38.83,38.83,0,0,0,11.23-2l4.34-1.78-3.39-1.3c-1.87-.72-3.85-1-4.4-.69-1.1.68-25.41,3.63-41.46,5-8.07.7-10.22,1.39-10.61,3.41C870.33,194.85,874.39,195,880.51,191.92Zm-522-2.45c.51-.5-6.74-.93-16.1-.94-10,0-16.49.52-15.73,1.27C329.3,192.35,356,192.08,358.55,189.47Zm-47.19.34c-5.21-1.67-14.75-1.67-10.87,0a27.62,27.62,0,0,0,8.7,1.21C314.17,191,314.47,190.81,311.36,189.81Zm447-.24c2-2-4.35-7-8.8-7-5.08,0-17.44-4-26.07-8.37l-5.74-2.93L714,174.39c-7.26,5.92-2.45,10.78,14.71,14.87C736.56,191.14,756.6,191.35,758.38,189.57Zm-32.61-2.9c-6.63-1.87-9.65-4.82-3.62-3.54,2.39.51,8.09,1.34,12.68,1.83s8.33,1.47,8.33,2.16C743.16,188.76,732.18,188.48,725.77,186.67Zm95.63.93c0-2-36.16-10.83-44.43-10.83-3.67,0-5.8,2.51-3.83,4.49,2.67,2.67,48.26,8.66,48.26,6.34Zm-479.58-2.33c18.32.44,19.83.27,23.19-2.64l3.59-3.11-25.36.93c-24.35.89-30.77,2.12-26.14,5a3.87,3.87,0,0,0,3.61.34C321.55,185.24,331.05,185,341.82,185.27Zm57.53-3.63c15.74-5.31,30.83-12.73,30.83-15.15S415,165.16,407,168.22c-4.37,1.67-12.18,4.47-17.36,6.22-13.33,4.5-24.15,11-18.29,11,1.13,0,20.78-7.62,29.88-11.58,9.81-4.28,17.59-5.84,18.84-3.78.39.66-4.82,3-11.6,5.26-13.31,4.38-29.35,11.33-26.48,11.46C382.93,186.88,390.76,184.54,399.35,181.64Zm44.71,3.83c1.13,0,2.06-.66,2.06-1.45,0-2.18-3.44-1.74-6.61.84-2.57,2.1-2.59,2.22-.16,1.45A19.32,19.32,0,0,1,444.06,185.47Zm459.82-3.8c.33-.3.21-.94-.26-1.41-1.31-1.31-9.77.89-9.77,2.54C893.85,184.1,902.26,183.16,903.88,181.67Zm-464.52-2.2c8.39-1.68,10.1-3.11,5.76-4.78-4-1.53-23.64,2.17-23.64,4.46,0,2.45,6.65,2.57,17.88.32Zm326.26-2c7-1.46,3.48-3.2-9.78-4.85-12.69-1.58-21.94-3.1-32.6-5.36-13.11-2.77,0,4.92,14.85,8.7C751.58,179.4,755.34,179.6,765.62,177.47Zm363,.92c0-1.39-6-3.36-7-2.32-.49.49,4,2.82,6.67,3.51C1128.43,179.63,1128.59,179.09,1128.59,178.39ZM322.33,176.7c10.19-1.81,26.72-7,26.66-8.38-.26-5.5-3.66-6.12-18.24-3.31-7.87,1.52-17.41,3.19-21.2,3.73s-6.88,1.67-6.88,2.53c0,1.52,3,1.4,27.53-1.11,5.66-.58,7.31-.39,5.69.65-2.93,1.9-18.94,4.49-27.79,4.5-3.78,0-6.88.67-6.88,1.46,0,1.89,10.24,1.85,21.11-.07Zm275.12-.53c-3.56-2.61-1.47-5,2.31-2.6,6.06,3.78,11.1,0,12.52-9.3l.85-5.61L610,161.9c-4.23,4.39-9.14,5.39-14.12,2.88a45.51,45.51,0,0,0-8.18-3.06c-2.23-.53-3.68-1.57-3.22-2.3,1-1.57,15.32-.24,17.33,1.6,6.12,5.61,6.34-1.21.27-8-4.65-5.22-5.24-5.46-12.68-5-4.56.26-9.22-.33-11.22-1.44a13.2,13.2,0,0,0-8.33-1c-3.87.73-4.92.45-4.92-1.31a2.21,2.21,0,0,1,2.18-2.24c4.3,0,1.62-15.83-3.73-22l-2.93-3.38,1,5.07c.53,2.79,1.87,5.59,3,6.23,2.84,1.65,2.47,7.38-.66,10.21s-5.35,1.5-2.35-1.5c2.7-2.7,2.71-6.24,0-6.24-3.42,0-6.7,5.8-5,8.91a5.5,5.5,0,0,1-.07,5.48,18.92,18.92,0,0,0-1.5,7.35v4.55l8-1c7.6-.95,8.15-.79,12.17,3.52,2.32,2.48,4.93,4.51,5.81,4.51a1.44,1.44,0,0,1,1.59,1.21c0,2.92,11.35,13.28,14.55,13.28s3.3-.06.58-2.05Zm232-1.49c3.33-2.51,5-2.31-22.5-2.82-9.16-.17-20.57-.85-25.35-1.51-6.1-.83-8.26-.73-7.25.34C778.85,175.48,824,178.76,829.41,174.68ZM365,173.18c0-1.18,1.47-2.44,3.26-2.8,25.45-5.06,34.47-6.65,37.75-6.65,2.51,0,3.91-.78,3.91-2.17,0-2.78.37-2.8-19.05,1.3-9,1.91-21.5,3.94-27.68,4.52-9.88.91-16.08,3.6-8.33,3.6,1.61,0,2.9,1,2.9,2.17s1.37,2.17,3.62,2.17S365,174.5,365,173.18Zm765.14-3.13c.8-2.1,1.09-4.19.64-4.64s-1.21.65-1.68,2.45c-.62,2.34-1.53,3-3.21,2.28-3.58-1.53-6.61-1.49-7.41.1-.6,1.18,2.9,2.52,9.09,3.46.62.1,1.77-1.55,2.57-3.65Zm7.17.12c0-1.15.65-2.09,1.45-2.09a1.45,1.45,0,0,1,1.45,1.45c0,3.86,2.49.72,4-5.09,3.64-13.61.42-24.54-4-13.75-1,2.39-2.21,4.35-2.71,4.35s-1,1.79-1,4a64.76,64.76,0,0,1-1.29,9.63c-.87,4.1-.75,5.37.45,4.62a4,4,0,0,0,1.65-3.1ZM100.92,167.34c8.18-2.78,16.65-5.06,18.83-5.07,6.6,0,14.84-1.74,14.84-3.07,0-.7-1.31-1.26-2.9-1.26-3.29,0-3.72-1.51-1.16-4.06,1.35-1.35-.82-1.74-9.78-1.72-14.22,0-18,1-18,4.44a5.42,5.42,0,0,1-2.8,4.18c-4.06,2.17-4.76,1.88-3.68-1.54S95.86,156,84.47,161c-5.88,2.6-9.31,8.49-5,8.49.8,0,1.45-1,1.45-2.16,0-1.67,8.21-6.54,11-6.54,2.36,0-.21,4.49-3,5.18a14.29,14.29,0,0,0-6,3.65C79.22,173.87,83.29,173.34,100.92,167.34Zm6.45-9.63a4.53,4.53,0,0,1,3.23-2.45c1.65-.32,2.35.2,1.94,1.45a4.53,4.53,0,0,1-3.24,2.45C107.65,159.48,107,159,107.37,157.71Zm11.55-1.31a4.54,4.54,0,0,1,2.53-2.54c1.09-.36,1.63.18,1.27,1.27a4.53,4.53,0,0,1-2.53,2.53C119.1,158,118.56,157.48,118.92,156.4ZM124.09,169c6.58-1.06,12.44-2.44,13-3.08,1.52-1.64-19.62.24-25.73,2.29-6.79,2.27-9.37,4.86-3.62,3.63C110.17,171.35,117.51,170.07,124.09,169Zm316.84,1.08c2.08-.8,3.35-4.92,1.52-4.92-1.64,0-10.82,4.24-10.82,5C431.63,171.25,438.07,171.2,440.93,170.1Zm184.85-8.51c1.8-6.43,1-16.69-1.33-16.69-.67,0-1.58,4.07-2,9a119,119,0,0,1-1.85,13.4c-1.75,7.25,3,1.92,5.2-5.76Zm141.64,6.89c1-3.13-14.45-7.23-31.24-8.26-9-.55-17.41-1.39-18.63-1.86-1.59-.61-2.07-.08-1.69,1.88.92,4.77,50.09,12.63,51.56,8.24Zm152.52-.6c6.77-.84,13.45-1.5,14.85-1.48,3,.06,3.28-1.69.56-4-1.47-1.22-3.46-1.1-7.92.47-13.59,4.8-76.88,3.83-93.71-1.44l-5.8-1.81,5.8-.14c3.19-.07,11.34.48,18.11,1.22,26,2.87,79.32,2.63,59.41-.26-13.6-2-94.32-7.2-95.38-6.17-.26.25,1.37,1.33,3.62,2.41,3,1.45,4.21,3.15,4.55,6.65a27.63,27.63,0,0,0,.73,4.93c2.6,2.19,76.72,1.86,95.17-.43Zm-673.78.2c0-1.85-5.84-1.85-8.7,0-1.61,1-.78,1.41,3.26,1.43C243.71,169.52,246.16,168.88,246.16,168.08Zm570.1-3c2.91-3,2.91-3.11.2-4.75a38.81,38.81,0,0,1-5.48-4.25c-3.21-3.06-5.9-3.55-25.47-4.6-14.81-.8-14.88-.79-16.53,2.82-.91,2-2.53,3.64-3.59,3.64-3.28,0-2.16,2,2.77,5C778.54,169.26,810.83,170.68,816.26,165.08ZM784,163.7c-7.51-1.09-10.15-2.16-8.77-3.55,1.22-1.21,36,2.53,35.17,3.8C809.5,165.41,794.83,165.27,784,163.7Zm-455.25-1c7.57-1.35,15.6-3.55,17.84-4.9l4.07-2.45-4.89-.91a22.15,22.15,0,0,0-9.15.44c-9.13,2.93-38.63,6.28-48.82,5.55-5.75-.41-12-.15-13.94.57-13.46,5.12,28.37,6.41,54.89,1.7Zm290.62-4.26c1.11-7.35-1-16.54-4.49-19.42-2.86-2.37-4.19-1-2.3,2.43.82,1.48,1.9,7.74,2.4,13.92C616,167.65,617.81,168.93,619.37,158.48Zm494.73,6.87c0-1.9-5.48-3-14.85-3-8.55,0-11.49,2.21-4.35,3.29C1102.61,166.76,1114.1,166.62,1114.1,165.35Zm11.59-.17c0-.8-2.12-1.4-4.71-1.35-3.94.09-4.24.31-1.81,1.35C1123.17,166.9,1125.69,166.9,1125.69,165.18ZM1088,163.73c0-.8-2.61-1.45-5.8-1.45s-5.79.65-5.79,1.45,2.6,1.45,5.79,1.45S1088,164.53,1088,163.73Zm-694.07-5c15.52-3.41,29-8.62,29-11.22,0-1.54-13.53-1.41-17.69.17-1.86.71-9.89,2.36-17.84,3.66-19.35,3.17-21.22,3.63-20.35,5.05s2.83,1.06,19.24-2.15c12-2.35,19.26-2.63,19.26-.75,0,.71-2.45,1.6-5.44,2s-12.76,1.77-21.72,3.1c-10.48,1.57-17.2,2-18.84,1.1-3-1.57-9.07.34-9.07,2.84S374.25,163,394,158.68Zm53.2,1.24c.84-2.54-8.67-3.68-16.33-2-4.17.93-7.43,1-8.23.22s.86-1.74,4.19-2.36c10.05-1.89,14.85-6.61,6.66-6.55-7.49.06-21.95,8.28-20,11.39C414.83,163,446.37,162.27,447.15,159.92Zm683-2c.74,0,1.35-1,1.35-2.18s.65-2.17,1.45-2.17a1.51,1.51,0,0,0,1.44-1.55c0-.88-1.23-1.15-2.89-.62-2,.64-2.9.26-2.9-1.31,0-1.38.82-1.91,2.17-1.39s2.18.18,2.18-.62-1-1.82-2.15-2.27a2.3,2.3,0,0,1-1.3-3.05c2.25-5.86-8,1.38-10.52,7.44-3.4,8.15-2.69,10.38,3.46,10.89,3.45.28,5.6-.21,5.9-1.36.26-1,1.08-1.81,1.81-1.81Zm-580,1.16q4.07-4.07-1.88-4.06c-3.41,0-4.86,2.63-2.66,4.83C547,161.26,548.18,161.06,550.15,159.1Zm561.66.85a4.14,4.14,0,0,0,2.29-3.68c0-1.54,1.32-5.38,2.93-8.53S1119.5,142,1119,142c-19.09,0-36.82,16.53-19.06,17.76,4.22.3,8.11.66,8.65.81A7.43,7.43,0,0,0,1111.81,160Zm-20.92-6.3c3.5-6.88,3.55-7.31.73-7.31-8.8,0-15.1,4.67-15.17,11.23C1076.39,162.66,1087.88,159.53,1090.89,153.65Zm-163.33,3.27a25.36,25.36,0,0,0-7.24,0c-2.21.33-.75.61,3.24.62S929.34,157.26,927.56,156.92ZM141.83,155c0-.8-1.67-1.45-3.71-1.45s-3.32.63-2.81,1.45,2.16,1.45,3.71,1.45S141.83,155.83,141.83,155Zm588.29,0c0-2,25.68-1.92,26.36.11.73,2.19,8.41,0,8.41-2.35,0-2.09-2.45-2.52-28.79-5-18.29-1.74-18.57-1.68-15.86,3.13C723.18,156.15,730.12,159,730.12,155Zm167.36,0a58.65,58.65,0,0,0-11.6-1.09c-6.74,0-6.89.09-2.17,1.09C891,156.57,903.51,156.57,897.48,155Zm-32.24-2.47a20.37,20.37,0,0,0-6.52,0c-1.8.34-.33.62,3.26.62S867,152.91,865.24,152.57ZM378,149.13c24-3,26.64-3.53,26.73-5,.16-2.86-24.89-2.17-58.12,1.6-3.38.39-6.45,0-7-.82s.56-1.5,2.69-1.5,4-.66,4.52-1.45c1.2-1.95-11.66-1.91-15.31.05C319.88,148.29,349.27,152.78,378,149.13Zm392.33-2.33a15.57,15.57,0,0,0-5.79,0c-1.8.34-.67.64,2.52.66S771.73,147.16,770.34,146.8Zm-464.49-1.9c5.07,0,5.66-.36,5.25-3.22-.44-3.06-1.16-3.22-15.36-3.44-11.68-.18-15.48-.75-17.59-2.66s-4.48-2.26-13.72-1.43c-13.72,1.25-14.9,4.95-1.56,4.95,3.14,0,5.38.9,6.29,2.53,1.48,2.64,17.84,5,26.81,3.8a96.89,96.89,0,0,1,9.88-.53Zm132.67-2.07c3.14-3.14-1.69-5.35-10.88-5-5.39.22-10.55-.07-11.48-.64-2.38-1.47-9.52,1.53-8.81,3.7C408.34,143.93,435.75,145.61,438.52,142.83Zm162.58-6.27c-.13-17.12-3.4-25-10.36-25-3.87,0-3.53,6.76.41,8s7.11,9.07,7.11,18c0,4,.65,7.3,1.45,7.3s1.42-3.71,1.39-8.34Zm-22.62-4.75c-1.29-4.36-2.59-8.83-2.91-9.94s-.86-1.72-1.23-1.36.47,5.31,1.85,11,3,9.86,3.57,9.28,0-4.61-1.28-9Zm-174,3.49c3.4-1,3.21-2.93-.38-3.87-1.61-.42-15.14.14-30.07,1.24s-28,2-29,2a1.78,1.78,0,0,0-1.81,1.69C343.24,138,398.48,137,404.46,135.3Zm178.08-9c-1.75-7.8.22-7.9,2.55-.12,2.85,9.51,3.43,5.46.69-4.82-4.25-15.94-11.07-20.83-18.57-13.33-3.18,3.18-2.84,5.34.66,4.23,4.87-1.54,11.1,6.5,13.28,17.13,1,4.93,2,7.62,2.29,6A32.4,32.4,0,0,0,582.54,126.32Zm-242.2,8.59c0-2.29,3.9-2.94,27.17-4.51,25.89-1.75,29.34-2.29,29.34-4.58,0-1.84-8.66-1.38-45.64,2.39-27.5,2.8-29.3,3.26-22.46,5.78C334.87,136.24,340.34,136.68,340.34,134.91Zm314.43-2.33c0-4.05-2.11-4.86-3.47-1.33s-1,4.95,1.3,4.95C654,136.2,654.77,134.83,654.77,132.58Zm193.44,2.17c.51-.82-.71-1.45-2.81-1.45s-3.71.66-3.71,1.45,1.27,1.45,2.81,1.45S847.72,135.55,848.21,134.75ZM319.33,133.3c.49-.79-.12-1.45-1.36-1.45a2.22,2.22,0,0,1-2.26-2.17,2.27,2.27,0,0,0-2.34-2.17c-5.72,0-32.44,5-32.44,6.06C280.93,135.3,318.25,135.05,319.33,133.3ZM775,132.39c0-1.93-1-2.2-5.44-1.47A101.72,101.72,0,0,1,758.37,132c-5.6.18-5.65.22-1.45,1.29C765.43,135.47,775,135,775,132.39ZM736.57,132c-1.8-1.68-23.72-3-24.65-1.47-.4.64,3.37,1.4,8.38,1.68s11,.64,13.37.79c2.54.17,3.71-.24,2.9-1Zm33.4-8.65c3-.84-2.71-1.53-19.35-2.3-23.91-1.11-30.43-.14-24.84,3.69C728.21,126.43,762.81,125.34,770,123.37Zm-379.76-2.45c15.73-2.3,19.17-3.56,9.73-3.56-7.82,0-54.23,5.72-55.22,6.8C343.54,125.44,374.22,123.25,390.21,120.92Zm393.88,1.67c6.28-4.76,2.26-6.11-24.27-8.1C712,110.91,716,111,719.71,113.74c4,3,7.87,3.51,35,4.8,18.9.9,21,1.25,20.59,3.53-.53,3.1,4.93,3.43,8.75.52ZM572.18,118c0-1.15-1.31-2.08-2.9-2.08-3.26,0-3.72,1.5-1.22,4C570.06,121.91,572.18,120.93,572.18,118ZM288.72,948c.41-1.39,1.82-6.33,3.13-11s2.69-8.14,3.06-7.77c1.11,1.11-4.21,21.28-5.62,21.28C288.57,950.53,288.32,949.39,288.72,948Zm-73-15.26c0-2.49,5.46-7.65,6.74-6.37.5.5-.15,1.33-1.46,1.83a3.6,3.6,0,0,0-2.38,2.85,3.69,3.69,0,0,1-1.45,2.83c-.8.49-1.45,0-1.45-1.14Zm5.79-13.13c0-.53,2.64-3.34,5.87-6.26,4.28-3.86,5.36-5.61,4-6.45-2-1.25-1.74-1.62,5.18-6.83,4.15-3.12,4.15-3.14.73-3.19s-3.4-.11.89-3.62c3.8-3.11,4-3.57,1.45-3.66-2.78-.08-2.79-.16-.23-1.81,1.47-.95,7.65-5.43,13.74-9.94,10-7.41,18.56-10.84,9.72-3.89-2,1.59-3.67,3.86-3.67,5s-.65,1.75-1.44,1.26-2.58-.22-4,.6c-2.42,1.4-2.42,1.48,0,1.52,4.09.07,2.88,1.94-4.16,6.4-4.55,2.89-6,4.54-4.77,5.32s.56,2.2-2.77,5c-2.53,2.13-4.6,4.66-4.6,5.63,0,1.62-4.59,6.37-12.68,13.11-1.79,1.49-3.26,2.28-3.26,1.76Zm65-130.52c-1.58-3.47-.67-13.16,1.35-14.41.57-.35,1,3.54,1,8.64,0,10.4-.13,10.72-2.38,5.77Zm4.56-8.17c0-1.64.65-2.58,1.44-2.08a3.81,3.81,0,0,1,1.45,3c0,1.15-.65,2.09-1.45,2.09S291.08,782.55,291.08,780.91Zm23.18,2.28c0-1.31,11.64-8.42,12.46-7.6.44.44-1.68,2.49-4.71,4.56-5.29,3.59-7.75,4.56-7.75,3ZM536.62,143.35c-.53-.85-.7-1.8-.39-2.12,1-1,7,1.05,7,2.39C543.2,145.43,537.77,145.21,536.62,143.35Zm371.72.49c-2.79-.33-5.72-1.29-6.52-2.13-1-1.08.68-1.26,5.64-.63a131.76,131.76,0,0,0,14.13.92c3.87,0,7,.65,7,1.45C928.63,144.86,918.68,145.05,908.34,143.84ZM548.66,125.7c-.72-6.89-.53-7.59,1.69-6.22,1.86,1.15,2.09,12.37.25,12.37-.72,0-1.59-2.77-1.94-6.15Z"/></g></svg>